/* XPM */
static char *result[] = {
/* columns rows colors chars-per-pixel */
"64 64 2 1 ",
"  c white",
". c #2C1916",
/* pixels */
"................................................................",
"................................................................",
"................................................................",
"................................................................",
"................................................................",
"................................................................",
"................................                ................",
"................................                ................",
"..............................                    ..............",
"..............................                    ..............",
"..........................                          ............",
"..........................                          ............",
"..........................                            ..........",
"..........................                            ..........",
"..........................                            ..........",
"..........................                            ..........",
"................  ......                              ..........",
"................  ......                              ..........",
"................  ......                            ............",
"................  ......                            ............",
"................  ........                        ....  ........",
"................  ........                        ....  ........",
"..........  ....  ............                  ......  ........",
"..........  ....  ............                  ......  ........",
"..........  ....    ..........                ........  ........",
"..........  ....    ..........                ........  ........",
"......  ..  ......  ..........            ............  ....  ..",
"......  ..  ......  ..........            ............  ....  ..",
"......  ..    ....    ..........          ..........    ....  ..",
"......  ..    ....    ..........          ..........    ....  ..",
"......  ....  ......    ..........      ............  ......  ..",
"......  ....  ......    ..........      ............  ......  ..",
"......  ....    ......      ......    ............    ....    ..",
"......  ....    ......      ......    ............    ....    ..",
"......  ....    ......      ......    ..........    ......  ....",
"......  ....    ......      ......    ..........    ......  ....",
"......    ....    ........              ....      ......    ....",
"......    ....    ........              ....      ......    ....",
"........    ....      ............        ..      ......    ....",
"........    ....      ............        ..      ......    ....",
"..........    ......                          ........    ......",
"..........    ......                          ........    ......",
"............    ..................    ....  ......      ....  ..",
"............    ..................    ....  ......      ....  ..",
"..............                                      ......    ..",
"..............                                      ......    ..",
"..................................    ......    ........      ..",
"..................................    ......    ........      ..",
"............................        ......                ......",
"............................        ......                ......",
"............................  ..  ..........  ..................",
"............................  ..  ..........  ..................",
"............................  ..  ..........  ..................",
"............................  ..  ..........  ..................",
"..........................  ....  ..........  ..................",
"..........................  ....  ..........  ..................",
"..........................  ....  ..........  ..................",
"..........................  ....  ..........  ..................",
"........................  ..............        ................",
"........................  ..............        ................",
"......................................          ................",
"......................................          ................",
"......................................  ..  ..  ................",
"......................................  ..  ..  ................"
};
