/* XPM */
static char *_40e53c653934d87fa529005cff70d9fSDEiQGCfihRRh3Zu[] = {
/* columns rows colors chars-per-pixel */
"64 64 6 1 ",
"  c #2C1916",
". c black",
"X c #494949",
"o c red",
"O c #C5C5C5",
"+ c white",
/* pixels */
"                                                                ",
"                                                                ",
"                          ++++++++++++                          ",
"                          ++++++++++++                          ",
"                        ++OOOOOOOOOOOO++                        ",
"                        ++OOOOOOOOOOOO++                        ",
"                      ++OOOOOOOOOOOOOOOO++                      ",
"                      ++OOOOOOOOOOOOOOOO++                      ",
"                    ++OOOOOOOOOOOOOOOOOO++                      ",
"                    ++OOOOOOOOOOOOOOOOOO++                      ",
"                  ++OOOOOOOOOOOOOOOOOOOOOO++                    ",
"                  ++OOOOOOOOOOOOOOOOOOOOOO++                    ",
"                  ++OOOOOOOOOOOOOOOOOO....++                    ",
"                  ++OOOOOOOOOOOOOOOOOO....++                    ",
"                    ++OOOOOOOOOOOOOOOO..oo++                    ",
"                    ++OOOOOOOOOOOOOOOO..oo++                    ",
"                    ++OOOOOO++++OOOOOOOOOO++                    ",
"                    ++OOOOOO++++OOOOOOOOOO++                    ",
"                      ++++++XXXX++++++++++                      ",
"                      ++++++XXXX++++++++++                      ",
"                      ++++XXXXXX++..++..++                      ",
"                      ++++XXXXXX++..++..++                      ",
"                      ++  ++XXXX..........                      ",
"                      ++  ++XXXX..........                      ",
"                ++      ++  ++............                      ",
"                ++      ++  ++............                      ",
"                ++        ++  ++..++..++..                      ",
"                ++        ++  ++..++..++..                      ",
"                ++        ++  ++++++++++++                      ",
"                ++        ++  ++++++++++++                      ",
"          ++    ++        ++++                                  ",
"          ++    ++        ++++                                  ",
"          ++      ++        ++++++++++++                        ",
"          ++      ++        ++++++++++++                        ",
"  ++      ++        ++++    ++          ++                      ",
"  ++      ++        ++++    ++          ++                      ",
"  ++        ++          ++++  ++          ++++                  ",
"  ++        ++          ++++  ++          ++++                  ",
"  ++        ++                ++              ++                ",
"  ++        ++                ++              ++                ",
"  ++          ++++            ++                ++              ",
"  ++          ++++            ++                ++              ",
"    ++            ++++      ++++                ++              ",
"    ++            ++++      ++++                ++              ",
"      ++              ++++++  ++                ++              ",
"      ++              ++++++  ++                ++              ",
"        ++                    ++              ++++++++          ",
"        ++                    ++              ++++++++          ",
"          ++++                ++              ++  ++  ++        ",
"          ++++                ++              ++  ++  ++        ",
"              ++++++++      ++++++            ++  ++  ++        ",
"              ++++++++      ++++++            ++  ++  ++        ",
"                      ++++++      ++                            ",
"                      ++++++      ++                            ",
"                      ++++          ++                          ",
"                      ++++          ++                          ",
"                        ++            ++                        ",
"                        ++            ++                        ",
"                      ++              ++                        ",
"                      ++              ++                        ",
"                ++++++++              ++++                      ",
"                ++++++++              ++++                      ",
"          ++++++++                  ++    ++                    ",
"          ++++++++                  ++    ++                    "
};
