/* XPM */
static char *result[] = {
/* columns rows colors chars-per-pixel */
"64 64 6 1 ",
"  c black",
". c #494949",
"X c red",
"o c #C5C5C5",
"O c white",
"+ c None",
/* pixels */
"++++++++++++++++++++++++++OOOOOOOOOOOO++++++++++++++++++++++++++",
"++++++++++++++++++++++++++OOOOOOOOOOOO++++++++++++++++++++++++++",
"++++++++++++++++++++++++OOooooooooooooOO++++++++++++++++++++++++",
"++++++++++++++++++++++++OOooooooooooooOO++++++++++++++++++++++++",
"++++++++++++++++++++++OOooooooooooooooooOO++++++++++++++++++++++",
"++++++++++++++++++++++OOooooooooooooooooOO++++++++++++++++++++++",
"++++++++++++++++++++++OOooooooooooooooooooOO++++++++++++++++++++",
"++++++++++++++++++++++OOooooooooooooooooooOO++++++++++++++++++++",
"++++++++++++++++++++OOooooooooooooooooooooooOO++++++++++++++++++",
"++++++++++++++++++++OOooooooooooooooooooooooOO++++++++++++++++++",
"++++++++++++++++++++OO    ooooooooooooooooooOO++++++++++++++++++",
"++++++++++++++++++++OO    ooooooooooooooooooOO++++++++++++++++++",
"++++++++++++++++++++OOXX  ooooooooooooooooOO++++++++++++++++++++",
"++++++++++++++++++++OOXX  ooooooooooooooooOO++++++++++++++++++++",
"++++++++++++++++++++OOooooooooooOOOOooooooOO++++++++++++++++++++",
"++++++++++++++++++++OOooooooooooOOOOooooooOO++++++++++++++++++++",
"++++++++++++++++++++++OOOOOOOOOO....OOOOOO++++++++++++++++++++++",
"++++++++++++++++++++++OOOOOOOOOO....OOOOOO++++++++++++++++++++++",
"++++++++++++++++++++++OO  OO  OO......OOOO++++++++++++++++++++++",
"++++++++++++++++++++++OO  OO  OO......OOOO++++++++++++++++++++++",
"++++++++++++++++++++++          ....OO++OO++++++++++++++++++++++",
"++++++++++++++++++++++          ....OO++OO++++++++++++++++++++++",
"++++++++++++++++++++++  OO  OO....OO++++OO++++++++++++++++++++++",
"++++++++++++++++++++++  OO  OO....OO++++OO++++++++++++++++++++++",
"++++++++++++++++++++++OOOOOOOOOOOO++++OO++++++OO++++++++++++++++",
"++++++++++++++++++++++OOOOOOOOOOOO++++OO++++++OO++++++++++++++++",
"++++++++++++++++++++++++++++++++++++OO++++++++OO++++++++++++++++",
"++++++++++++++++++++++++++++++++++++OO++++++++OO++++++++++++++++",
"++++++++++++++++++++++++++++++++++++OO++++++++OO++++++++++++++++",
"++++++++++++++++++++++++++++++++++++OO++++++++OO++++++++++++++++",
"++++++++++++++++++++++++++++++++++OOOO++++++++OO++++OO++++++++++",
"++++++++++++++++++++++++++++++++++OOOO++++++++OO++++OO++++++++++",
"++++++++++++++++++++++++OOOOOOOOOOOO++++++++OO++++++OO++++++++++",
"++++++++++++++++++++++++OOOOOOOOOOOO++++++++OO++++++OO++++++++++",
"++++++++++++++++++++++OO++++++++++OO++++OOOO++++++++OO++++++OO++",
"++++++++++++++++++++++OO++++++++++OO++++OOOO++++++++OO++++++OO++",
"++++++++++++++++++OOOOOO++++++++OO++OOOO++++++++++OO++++++++OO++",
"++++++++++++++++++OOOOOO++++++++OO++OOOO++++++++++OO++++++++OO++",
"++++++++++++++++OO++++++++++++++OO++++++++++++++++OO++++++++OO++",
"++++++++++++++++OO++++++++++++++OO++++++++++++++++OO++++++++OO++",
"++++++++++++++OO++++++++++++++++OO++++++++++++OOOO++++++++++OO++",
"++++++++++++++OO++++++++++++++++OO++++++++++++OOOO++++++++++OO++",
"++++++++++++++OO++++++++++++++++OOOO++++++OOOO++++++++++++OO++++",
"++++++++++++++OO++++++++++++++++OOOO++++++OOOO++++++++++++OO++++",
"++++++++++++++OO++++++++++++++++OO++OOOOOO++++++++++++++OO++++++",
"++++++++++++++OO++++++++++++++++OO++OOOOOO++++++++++++++OO++++++",
"++++++++OOOOOOOOOO++++++++++++++OO++++++++++++++++++++OO++++++++",
"++++++++OOOOOOOOOO++++++++++++++OO++++++++++++++++++++OO++++++++",
"++++++++OO++OO++OO++++++++++++++OO++++++++++++++++OOOO++++++++++",
"++++++++OO++OO++OO++++++++++++++OO++++++++++++++++OOOO++++++++++",
"++++++++OO++OO++OO++++++++++++++OOOO++++++OOOOOOOO++++++++++++++",
"++++++++OO++OO++OO++++++++++++++OOOO++++++OOOOOOOO++++++++++++++",
"++++++++++++++++++++++++++++++OO++++OOOOOO++++++++++++++++++++++",
"++++++++++++++++++++++++++++++OO++++OOOOOO++++++++++++++++++++++",
"++++++++++++++++++++++++++++++OO++++OO++++++++++++++++++++++++++",
"++++++++++++++++++++++++++++++OO++++OO++++++++++++++++++++++++++",
"++++++++++++++++++++++++++++OO++++OO++++++++++++++++++++++++++++",
"++++++++++++++++++++++++++++OO++++OO++++++++++++++++++++++++++++",
"++++++++++++++++++++++++++++OO++++OO++++++++++++++++++++++++++++",
"++++++++++++++++++++++++++++OO++++OO++++++++++++++++++++++++++++",
"++++++++++++++++++++++++++++OOOO++OO++++++++++++++++++++++++++++",
"++++++++++++++++++++++++++++OOOO++OO++++++++++++++++++++++++++++",
"++++++++++++++++++++++++OOOO++OO++++OOOOOOOOOOOOOOOOOO++++++++++",
"++++++++++++++++++++++++OOOO++OO++++OOOOOOOOOOOOOOOOOO++++++++++"
};
