/* XPM */
static char *result[] = {
/* columns rows colors chars-per-pixel */
"64 64 6 1 ",
"  c black",
". c #494949",
"X c red",
"o c #C5C5C5",
"O c white",
"+ c None",
/* pixels */
"++++++++++++++++++++++++++++++++++++++++++++++++++++++++++++++++",
"++++++++++++++++++++++++++++++++++++++++++++++++++++++++++++++++",
"++++++++++++++++++++++++++++++++++++++++++++++++++++++++++++++++",
"++++++++++++++++++++++++++++++++++++++++++++++++++++++++++++++++",
"++++++++++++++++++++++++++++++++++++++++++++++++++++++++++++++++",
"++++++++++++++++++++++++++++++++++++++++++++++++++++++++++++++++",
"++++++++++++++++++++++++++OOOOOOOOOOOO++++++++++++++++++++++++++",
"++++++++++++++++++++++++++OOOOOOOOOOOO++++++++++++++++++++++++++",
"++++++++++++++++++++++++OOooooooooooooOO++++++++++++++++++++++++",
"++++++++++++++++++++++++OOooooooooooooOO++++++++++++++++++++++++",
"++++++++++++++++++++++OOooooooooooooooooOO++++++++++++++++++++++",
"++++++++++++++++++++++OOooooooooooooooooOO++++++++++++++++++++++",
"++++++++++++++++++++OOooooooooooooooooooOO++++++++++++++++++++++",
"++++++++++++++++++++OOooooooooooooooooooOO++++++++++++++++++++++",
"++++++++++++++++++OOooooooooooooooooooooooOO++++++++++++++++++++",
"++++++++++++++++++OOooooooooooooooooooooooOO++++++++++++++++++++",
"++++++++++++++++++OOoooooooooooooooooo    OO++++++++++++++++++++",
"++++++++++++++++++OOoooooooooooooooooo    OO++++++++++++++++++++",
"++++++++++++++++++++OOoooooooooooooooo  XXOO++++++++++++++++++++",
"++++++++++++++++++++OOoooooooooooooooo  XXOO++++++++++++++++++++",
"++++++++++++++++++++OOooooooOOOOooooooooooOO++++++++++++++++++++",
"++++++++++++++++++++OOooooooOOOOooooooooooOO++++++++++++++++++++",
"++++++++++++++++++++++OOOOOO....OOOOOOOOOO++++++++++++++++++++++",
"++++++++++++++++++++++OOOOOO....OOOOOOOOOO++++++++++++++++++++++",
"++++++++++++++++++++++OOOO......OO  OO  OO++++++++++++++++++++++",
"++++++++++++++++++++++OOOO......OO  OO  OO++++++++++++++++++++++",
"++++++++++++++++++++++OO++OO....          ++++++++++++++++++++++",
"++++++++++++++++++++++OO++OO....          ++++++++++++++++++++++",
"++++++++++++++++OO++++++OO++OO....OO  OO  ++++++++++++++++++++++",
"++++++++++++++++OO++++++OO++OO....OO  OO  ++++++++++++++++++++++",
"++++++++++++++++OO++++++++OO++OOOOOOOOOOOO++++++++++++++++++++++",
"++++++++++++++++OO++++++++OO++OOOOOOOOOOOO++++++++++++++++++++++",
"++++++++++++++++OO++++++++++OO++++++++++++++++++++++++++++++++++",
"++++++++++++++++OO++++++++++OO++++++++++++++++++++++++++++++++++",
"++++++++++OO++++OO++++++++++OOOOOOOOOO++++++++++++++++++++++++++",
"++++++++++OO++++OO++++++++++OOOOOOOOOO++++++++++++++++++++++++++",
"++++++++++OO++++++OO++++++++OO++++++OOOOOO++++++++++++++++++++++",
"++++++++++OO++++++OO++++++++OO++++++OOOOOO++++++++++++++++++++++",
"++OO++++++OO++++++++OOOO++++OO++++++++++++OOOO++++++++++++++++++",
"++OO++++++OO++++++++OOOO++++OO++++++++++++OOOO++++++++++++++++++",
"++OO++++++++OO++++++++++OOOO++OO++++++++++++++OO++++++++++++++++",
"++OO++++++++OO++++++++++OOOO++OO++++++++++++++OO++++++++++++++++",
"++OO++++++++OO++++++++++++++++OO++++++++++++++++OO++++++++++++++",
"++OO++++++++OO++++++++++++++++OO++++++++++++++++OO++++++++++++++",
"++OO++++++++++OOOO++++++++++++OO++++++++++++++++OO++++++++++++++",
"++OO++++++++++OOOO++++++++++++OO++++++++++++++++OO++++++++++++++",
"++++OO++++++++++++OOOO++++++OOOO++++++++++++++++OO++++++++++++++",
"++++OO++++++++++++OOOO++++++OOOO++++++++++++++++OO++++++++++++++",
"++++++OO++++++++++++++OOOOOO++OO++++++++++++++OOOOOOOO++++++++++",
"++++++OO++++++++++++++OOOOOO++OO++++++++++++++OOOOOOOO++++++++++",
"++++++++OO++++++++++++++++++++OO++++++++++++OO++++OO++OO++++++++",
"++++++++OO++++++++++++++++++++OO++++++++++++OO++++OO++OO++++++++",
"++++++++++OOOO++++++++++++++++OOOOOOOOOO++++OO++++OO++OO++++++++",
"++++++++++OOOO++++++++++++++++OOOOOOOOOO++++OO++++OO++OO++++++++",
"++++++++++++++OOOOOOOO++++++OOOO++++++++OO++++++++++++++++++++++",
"++++++++++++++OOOOOOOO++++++OOOO++++++++OO++++++++++++++++++++++",
"++++++++++++++++++++++OOOOOO++++++++++++++OO++++++++++++++++++++",
"++++++++++++++++++++++OOOOOO++++++++++++++OO++++++++++++++++++++",
"++++++++++++++++++++++OOOO++++++++++++++++OO++++++++++++++++++++",
"++++++++++++++++++++++OOOO++++++++++++++++OO++++++++++++++++++++",
"++++++++++++++OOOOOOOO++++++++++++++++++++OOOO++++++++++++++++++",
"++++++++++++++OOOOOOOO++++++++++++++++++++OOOO++++++++++++++++++",
"++++++++OOOOOOOO++++++++++++++++++++++++OO++++OO++++++++++++++++",
"++++++++OOOOOOOO++++++++++++++++++++++++OO++++OO++++++++++++++++"
};
