/* XPM */
static char *_cdcdb96bddd4693b5dcd7ae87b0db24yQMPTnT1ioIZK3vU[] = {
/* columns rows colors chars-per-pixel */
"64 64 6 1 ",
"  c None",
". c black",
"X c #494949",
"o c red",
"O c #C5C5C5",
"+ c white",
/* pixels */
"                          ++++++++++++                          ",
"                          ++++++++++++                          ",
"                        ++OOOOOOOOOOOO++                        ",
"                        ++OOOOOOOOOOOO++                        ",
"                      ++OOOOOOOOOOOOOOOO++                      ",
"                      ++OOOOOOOOOOOOOOOO++                      ",
"                    ++OOOOOOOOOOOOOOOOOO++                      ",
"                    ++OOOOOOOOOOOOOOOOOO++                      ",
"                  ++OOOOOOOOOOOOOOOOOOOOOO++                    ",
"                  ++OOOOOOOOOOOOOOOOOOOOOO++                    ",
"                  ++OOOOOOOOOOOOOOOOOO....++                    ",
"                  ++OOOOOOOOOOOOOOOOOO....++                    ",
"                    ++OOOOOOOOOOOOOOOO..oo++                    ",
"                    ++OOOOOOOOOOOOOOOO..oo++                    ",
"                    ++OOOOOO++++OOOOOOOOOO++                    ",
"                    ++OOOOOO++++OOOOOOOOOO++                    ",
"                      ++++++XXXX++++++++++                      ",
"                      ++++++XXXX++++++++++                      ",
"                      ++++XXXXXX++..++..++                      ",
"                      ++++XXXXXX++..++..++                      ",
"                      ++  ++XXXX..........                      ",
"                      ++  ++XXXX..........                      ",
"                      ++    ++XXXX++..++..                      ",
"                      ++    ++XXXX++..++..                      ",
"                ++      ++    ++++++++++++                      ",
"                ++      ++    ++++++++++++                      ",
"                ++        ++                                    ",
"                ++        ++                                    ",
"                ++        ++                                    ",
"                ++        ++                                    ",
"          ++    ++        ++++                                  ",
"          ++    ++        ++++                                  ",
"          ++      ++        ++++++++++++                        ",
"          ++      ++        ++++++++++++                        ",
"  ++      ++        ++++    ++          ++                      ",
"  ++      ++        ++++    ++          ++                      ",
"  ++        ++          ++++  ++        ++++++                  ",
"  ++        ++          ++++  ++        ++++++                  ",
"  ++        ++                ++              ++                ",
"  ++        ++                ++              ++                ",
"  ++          ++++            ++                ++              ",
"  ++          ++++            ++                ++              ",
"    ++            ++++      ++++                ++              ",
"    ++            ++++      ++++                ++              ",
"      ++              ++++++  ++                ++              ",
"      ++              ++++++  ++                ++              ",
"        ++                    ++              ++++++++++        ",
"        ++                    ++              ++++++++++        ",
"          ++++                ++              ++  ++  ++        ",
"          ++++                ++              ++  ++  ++        ",
"              ++++++++      ++++              ++  ++  ++        ",
"              ++++++++      ++++              ++  ++  ++        ",
"                      ++++++    ++                              ",
"                      ++++++    ++                              ",
"                          ++    ++                              ",
"                          ++    ++                              ",
"                            ++    ++                            ",
"                            ++    ++                            ",
"                            ++    ++                            ",
"                            ++    ++                            ",
"                            ++  ++++                            ",
"                            ++  ++++                            ",
"          ++++++++++++++++++    ++  ++++                        ",
"          ++++++++++++++++++    ++  ++++                        "
};
