/* XPM */
static char *result[] = {
/* columns rows colors chars-per-pixel */
"64 64 6 1 ",
"  c black",
". c #494949",
"X c red",
"o c #C5C5C5",
"O c white",
"+ c None",
/* pixels */
"++++++++++++++++++++++++++++++++++++++++++++++++++++++++++++++++",
"++++++++++++++++++++++++++++++++++++++++++++++++++++++++++++++++",
"++++++++++++++++++++++++++++++++++++++++++++++++++++++++++++++++",
"++++++++++++++++++++++++++++++++++++++++++++++++++++++++++++++++",
"++++++++++++++++++++++++++++++++++++++++++++++++++++++++++++++++",
"++++++++++++++++++++++++++++++++++++++++++++++++++++++++++++++++",
"++++++++++++++++++++++++++OOOOOOOOOOOO++++++++++++++++++++++++++",
"++++++++++++++++++++++++++OOOOOOOOOOOO++++++++++++++++++++++++++",
"++++++++++++++++++++++++OOooooooooooooOO++++++++++++++++++++++++",
"++++++++++++++++++++++++OOooooooooooooOO++++++++++++++++++++++++",
"++++++++++++++++++++++OOooooooooooooooooOO++++++++++++++++++++++",
"++++++++++++++++++++++OOooooooooooooooooOO++++++++++++++++++++++",
"++++++++++++++++++++++OOooooooooooooooooooOO++++++++++++++++++++",
"++++++++++++++++++++++OOooooooooooooooooooOO++++++++++++++++++++",
"++++++++++++++++++++OOooooooooooooooooooooooOO++++++++++++++++++",
"++++++++++++++++++++OOooooooooooooooooooooooOO++++++++++++++++++",
"++++++++++++++++++++OO    ooooooooooooooooooOO++++++++++++++++++",
"++++++++++++++++++++OO    ooooooooooooooooooOO++++++++++++++++++",
"++++++++++++++++++++OOXX  ooooooooooooooooOO++++++++++++++++++++",
"++++++++++++++++++++OOXX  ooooooooooooooooOO++++++++++++++++++++",
"++++++++++++++++++++OOooooooooooOOOOooooooOO++++++++++++++++++++",
"++++++++++++++++++++OOooooooooooOOOOooooooOO++++++++++++++++++++",
"++++++++++++++++++++++OOOOOOOOOO....OOOOOO++++++++++++++++++++++",
"++++++++++++++++++++++OOOOOOOOOO....OOOOOO++++++++++++++++++++++",
"++++++++++++++++++++++OO  OO  OO......OOOO++++++++++++++++++++++",
"++++++++++++++++++++++OO  OO  OO......OOOO++++++++++++++++++++++",
"++++++++++++++++++++++          ....OO++OO++++++++++++++++++++++",
"++++++++++++++++++++++          ....OO++OO++++++++++++++++++++++",
"++++++++++++++++++++++  OO  OO....OO++OO++++++OO++++++++++++++++",
"++++++++++++++++++++++  OO  OO....OO++OO++++++OO++++++++++++++++",
"++++++++++++++++++++++OOOOOOOOOOOO++OO++++++++OO++++++++++++++++",
"++++++++++++++++++++++OOOOOOOOOOOO++OO++++++++OO++++++++++++++++",
"++++++++++++++++++++++++++++++++++OO++++++++++OO++++++++++++++++",
"++++++++++++++++++++++++++++++++++OO++++++++++OO++++++++++++++++",
"++++++++++++++++++++++++++OOOOOOOOOO++++++++++OO++++OO++++++++++",
"++++++++++++++++++++++++++OOOOOOOOOO++++++++++OO++++OO++++++++++",
"++++++++++++++++++++++OOOOOO++++++OO++++++++OO++++++OO++++++++++",
"++++++++++++++++++++++OOOOOO++++++OO++++++++OO++++++OO++++++++++",
"++++++++++++++++++OOOO++++++++++++OO++++OOOO++++++++OO++++++OO++",
"++++++++++++++++++OOOO++++++++++++OO++++OOOO++++++++OO++++++OO++",
"++++++++++++++++OO++++++++++++++OO++OOOO++++++++++OO++++++++OO++",
"++++++++++++++++OO++++++++++++++OO++OOOO++++++++++OO++++++++OO++",
"++++++++++++++OO++++++++++++++++OO++++++++++++++++OO++++++++OO++",
"++++++++++++++OO++++++++++++++++OO++++++++++++++++OO++++++++OO++",
"++++++++++++++OO++++++++++++++++OO++++++++++++OOOO++++++++++OO++",
"++++++++++++++OO++++++++++++++++OO++++++++++++OOOO++++++++++OO++",
"++++++++++++++OO++++++++++++++++OOOO++++++OOOO++++++++++++OO++++",
"++++++++++++++OO++++++++++++++++OOOO++++++OOOO++++++++++++OO++++",
"++++++++++OOOOOOOO++++++++++++++OO++OOOOOO++++++++++++++OO++++++",
"++++++++++OOOOOOOO++++++++++++++OO++OOOOOO++++++++++++++OO++++++",
"++++++++OO++OO++++OO++++++++++++OO++++++++++++++++++++OO++++++++",
"++++++++OO++OO++++OO++++++++++++OO++++++++++++++++++++OO++++++++",
"++++++++OO++OO++++OO++++OOOOOOOOOO++++++++++++++++OOOO++++++++++",
"++++++++OO++OO++++OO++++OOOOOOOOOO++++++++++++++++OOOO++++++++++",
"++++++++++++++++++++++OO++++++++OOOO++++++OOOOOOOO++++++++++++++",
"++++++++++++++++++++++OO++++++++OOOO++++++OOOOOOOO++++++++++++++",
"++++++++++++++++++++OO++++++++++++++OOOOOO++++++++++++++++++++++",
"++++++++++++++++++++OO++++++++++++++OOOOOO++++++++++++++++++++++",
"++++++++++++++++++++OO++++++++++++++++OOOO++++++++++++++++++++++",
"++++++++++++++++++++OO++++++++++++++++OOOO++++++++++++++++++++++",
"++++++++++++++++++OOOO++++++++++++++++++++OOOOOOOO++++++++++++++",
"++++++++++++++++++OOOO++++++++++++++++++++OOOOOOOO++++++++++++++",
"++++++++++++++++OO++++OO++++++++++++++++++++++++OOOOOOOO++++++++",
"++++++++++++++++OO++++OO++++++++++++++++++++++++OOOOOOOO++++++++"
};
