/* XPM */
static char *_692a9f4d5804c81a0ac8532bebd8c49zI0z592mAPHhKaqs[] = {
/* columns rows colors chars-per-pixel */
"64 64 6 1 ",
"  c None",
". c black",
"X c #494949",
"o c red",
"O c #C5C5C5",
"+ c white",
/* pixels */
"                                                                ",
"                                                                ",
"                          ++++++++++++                          ",
"                          ++++++++++++                          ",
"                        ++OOOOOOOOOOOO++                        ",
"                        ++OOOOOOOOOOOO++                        ",
"                      ++OOOOOOOOOOOOOOOO++                      ",
"                      ++OOOOOOOOOOOOOOOO++                      ",
"                    ++OOOOOOOOOOOOOOOOOO++                      ",
"                    ++OOOOOOOOOOOOOOOOOO++                      ",
"                  ++OOOOOOOOOOOOOOOOOOOOOO++                    ",
"                  ++OOOOOOOOOOOOOOOOOOOOOO++                    ",
"                  ++OOOOOOOOOOOOOOOOOO....++                    ",
"                  ++OOOOOOOOOOOOOOOOOO....++                    ",
"                    ++OOOOOOOOOOOOOOOO..oo++                    ",
"                    ++OOOOOOOOOOOOOOOO..oo++                    ",
"                        ++++++XXXX++++++++++                    ",
"                        ++++++XXXX++++++++++                    ",
"                        ++++XXXXXX++..++..++                    ",
"                        ++++XXXXXX++..++..++                    ",
"                        ++  ++XXXX..........                    ",
"                        ++  ++XXXX..........                    ",
"            ++            ++  ++............                    ",
"            ++            ++  ++............                    ",
"            ++              ++++++..++..++..                    ",
"            ++              ++++++..++..++..                    ",
"            ++              ++  ++++++++++++                    ",
"            ++              ++  ++++++++++++                    ",
"      ++    ++++            ++++++++++                          ",
"      ++    ++++            ++++++++++                          ",
"      ++        ++++        ++      ++++++                      ",
"      ++        ++++        ++      ++++++                      ",
"      ++++          ++++    ++            ++++                  ",
"      ++++          ++++    ++            ++++                  ",
"          ++++          ++++  ++              ++                ",
"          ++++          ++++  ++              ++                ",
"  ++        ++                ++                ++++            ",
"  ++        ++                ++                ++++            ",
"  ++          ++++            ++                  ++            ",
"  ++          ++++            ++                  ++            ",
"    ++            ++++      ++++                  ++++          ",
"    ++            ++++      ++++                  ++++          ",
"      ++              ++++++  ++                    ++  ++++    ",
"      ++              ++++++  ++                    ++  ++++    ",
"        ++                    ++                    ++++++      ",
"        ++                    ++                    ++++++      ",
"          ++++          ++++++++                    ++++        ",
"          ++++          ++++++++                    ++++        ",
"              ++++++++++    ++++++                              ",
"              ++++++++++    ++++++                              ",
"                            ++    ++                            ",
"                            ++    ++                            ",
"                            ++      ++                          ",
"                            ++      ++                          ",
"                          ++++        ++                        ",
"                          ++++        ++                        ",
"                          ++            ++                      ",
"                          ++            ++                      ",
"                          ++          ++++                      ",
"                          ++          ++++                      ",
"                          ++          ++  ++++                  ",
"                          ++          ++  ++++                  ",
"            ++++++++++++++                                      ",
"            ++++++++++++++                                      "
};
