/* XPM */
static char *_126934a427c4234ee435f4fbff60ca2xbvXWg18l3EXm35y[] = {
/* columns rows colors chars-per-pixel */
"64 64 6 1 ",
"  c #2C1916",
". c black",
"X c #494949",
"o c red",
"O c #C5C5C5",
"+ c white",
/* pixels */
"                            ++++++++++++                        ",
"                            ++++++++++++                        ",
"                      ++OOOOOOOOOOOO++                          ",
"                      ++OOOOOOOOOOOO++                          ",
"                    ++OOOOOOOOOOOOOOOO++                        ",
"                    ++OOOOOOOOOOOOOOOO++                        ",
"                  ++OOOOOOOOOOOOOOOOOO++                        ",
"                  ++OOOOOOOOOOOOOOOOOO++                        ",
"                ++OOOOOOOOOOOOOOOOOOOOOO++                      ",
"                ++OOOOOOOOOOOOOOOOOOOOOO++                      ",
"                ++OOOOOOOOOOOOOOOOOO....++                      ",
"                ++OOOOOOOOOOOOOOOOOO....++                      ",
"                  ++OOOOOOOOOOOOOOOO..oo++                      ",
"                  ++OOOOOOOOOOOOOOOO..oo++                      ",
"                      ++++++XXXX++++++++++                      ",
"                      ++++++XXXX++++++++++                      ",
"                      ++++XXXXXX++..++..++                      ",
"                      ++++XXXXXX++..++..++                      ",
"                      ++  ++XXXX..........                      ",
"                      ++  ++XXXX..........                      ",
"          ++            ++  ++XXXX++..++..                      ",
"          ++            ++  ++XXXX++..++..                      ",
"          ++              ++  ++++++++++++                      ",
"          ++              ++  ++++++++++++                      ",
"          ++              ++                                    ",
"          ++              ++                                    ",
"    ++    ++++            ++++++++++                            ",
"    ++    ++++            ++++++++++                            ",
"    ++        ++++        ++      ++++++                        ",
"    ++        ++++        ++      ++++++                        ",
"    ++++          ++++    ++            ++++                    ",
"    ++++          ++++    ++            ++++                    ",
"        ++++          ++++  ++              ++                  ",
"        ++++          ++++  ++              ++                  ",
"++        ++                ++                ++++  ++          ",
"++        ++                ++                ++++  ++          ",
"++          ++++            ++                ++++++++  ++      ",
"++          ++++            ++                ++++++++  ++      ",
"  ++            ++++      ++++                  ++  ++          ",
"  ++            ++++      ++++                  ++  ++          ",
"    ++              ++++++  ++                ++++              ",
"    ++              ++++++  ++                ++++              ",
"      ++                    ++                  ++              ",
"      ++                    ++                  ++              ",
"        ++++          ++++++++                                  ",
"        ++++          ++++++++                                  ",
"            ++++++++++    ++++++++                              ",
"            ++++++++++    ++++++++                              ",
"                          ++      ++                            ",
"                          ++      ++                            ",
"                          ++        ++                          ",
"                          ++        ++                          ",
"                            ++        ++                        ",
"                            ++        ++                        ",
"                              ++    ++++                        ",
"                              ++    ++++                        ",
"                              ++    ++  ++++                    ",
"                              ++    ++  ++++                    ",
"                              ++                                ",
"                              ++                                ",
"                            ++                                  ",
"                            ++                                  ",
"                  ++++++++++                                    ",
"                  ++++++++++                                    "
};
