/* XPM */
static char *result[] = {
/* columns rows colors chars-per-pixel */
"64 64 6 1 ",
"  c black",
". c #494949",
"X c red",
"o c #C5C5C5",
"O c white",
"+ c #2C1916",
/* pixels */
"++++++++++++++++++++++++++++++++++++++++++++++++++++++++++++++++",
"++++++++++++++++++++++++++++++++++++++++++++++++++++++++++++++++",
"++++++++++++++++++++++++++OOOOOOOOOOOO++++++++++++++++++++++++++",
"++++++++++++++++++++++++++OOOOOOOOOOOO++++++++++++++++++++++++++",
"++++++++++++++++++++++++OOooooooooooooOO++++++++++++++++++++++++",
"++++++++++++++++++++++++OOooooooooooooOO++++++++++++++++++++++++",
"++++++++++++++++++++++OOooooooooooooooooOO++++++++++++++++++++++",
"++++++++++++++++++++++OOooooooooooooooooOO++++++++++++++++++++++",
"++++++++++++++++++++++OOooooooooooooooooooOO++++++++++++++++++++",
"++++++++++++++++++++++OOooooooooooooooooooOO++++++++++++++++++++",
"++++++++++++++++++++OOooooooooooooooooooooooOO++++++++++++++++++",
"++++++++++++++++++++OOooooooooooooooooooooooOO++++++++++++++++++",
"++++++++++++++++++++OO    ooooooooooooooooooOO++++++++++++++++++",
"++++++++++++++++++++OO    ooooooooooooooooooOO++++++++++++++++++",
"++++++++++++++++++++OOXX  ooooooooooooooooOO++++++++++++++++++++",
"++++++++++++++++++++OOXX  ooooooooooooooooOO++++++++++++++++++++",
"++++++++++++++++++++OOOOOOOOOO....OOOOOO++++++++++++++++++++++++",
"++++++++++++++++++++OOOOOOOOOO....OOOOOO++++++++++++++++++++++++",
"++++++++++++++++++++OO  OO  OO......OOOO++++++++++++++++++++++++",
"++++++++++++++++++++OO  OO  OO......OOOO++++++++++++++++++++++++",
"++++++++++++++++++++          ....OO++OO++++++++++++++++++++++++",
"++++++++++++++++++++          ....OO++OO++++++++++++++++++++++++",
"++++++++++++++++++++            OO++OO++++++++++++OO++++++++++++",
"++++++++++++++++++++            OO++OO++++++++++++OO++++++++++++",
"++++++++++++++++++++  OO  OO  OOOOOO++++++++++++++OO++++++++++++",
"++++++++++++++++++++  OO  OO  OOOOOO++++++++++++++OO++++++++++++",
"++++++++++++++++++++OOOOOOOOOOOO++OO++++++++++++++OO++++++++++++",
"++++++++++++++++++++OOOOOOOOOOOO++OO++++++++++++++OO++++++++++++",
"++++++++++++++++++++++++++OOOOOOOOOO++++++++++++OOOO++++OO++++++",
"++++++++++++++++++++++++++OOOOOOOOOO++++++++++++OOOO++++OO++++++",
"++++++++++++++++++++++OOOOOO++++++OO++++++++OOOO++++++++OO++++++",
"++++++++++++++++++++++OOOOOO++++++OO++++++++OOOO++++++++OO++++++",
"++++++++++++++++++OOOO++++++++++++OO++++OOOO++++++++++OOOO++++++",
"++++++++++++++++++OOOO++++++++++++OO++++OOOO++++++++++OOOO++++++",
"++++++++++++++++OO++++++++++++++OO++OOOO++++++++++OOOO++++++++++",
"++++++++++++++++OO++++++++++++++OO++OOOO++++++++++OOOO++++++++++",
"++++++++++++OOOO++++++++++++++++OO++++++++++++++++OO++++++++OO++",
"++++++++++++OOOO++++++++++++++++OO++++++++++++++++OO++++++++OO++",
"++++++++++++OO++++++++++++++++++OO++++++++++++OOOO++++++++++OO++",
"++++++++++++OO++++++++++++++++++OO++++++++++++OOOO++++++++++OO++",
"++++++++++OOOO++++++++++++++++++OOOO++++++OOOO++++++++++++OO++++",
"++++++++++OOOO++++++++++++++++++OOOO++++++OOOO++++++++++++OO++++",
"++++OOOO++OO++++++++++++++++++++OO++OOOOOO++++++++++++++OO++++++",
"++++OOOO++OO++++++++++++++++++++OO++OOOOOO++++++++++++++OO++++++",
"++++++OOOOOO++++++++++++++++++++OO++++++++++++++++++++OO++++++++",
"++++++OOOOOO++++++++++++++++++++OO++++++++++++++++++++OO++++++++",
"++++++++OOOO++++++++++++++++++++OOOOOOOO++++++++++OOOO++++++++++",
"++++++++OOOO++++++++++++++++++++OOOOOOOO++++++++++OOOO++++++++++",
"++++++++++++++++++++++++++++++OOOOOO++++OOOOOOOOOO++++++++++++++",
"++++++++++++++++++++++++++++++OOOOOO++++OOOOOOOOOO++++++++++++++",
"++++++++++++++++++++++++++++OO++++OO++++++++++++++++++++++++++++",
"++++++++++++++++++++++++++++OO++++OO++++++++++++++++++++++++++++",
"++++++++++++++++++++++++++OO++++++OO++++++++++++++++++++++++++++",
"++++++++++++++++++++++++++OO++++++OO++++++++++++++++++++++++++++",
"++++++++++++++++++++++++OO++++++++OOOO++++++++++++++++++++++++++",
"++++++++++++++++++++++++OO++++++++OOOO++++++++++++++++++++++++++",
"++++++++++++++++++++++OO++++++++++++OO++++++++++++++++++++++++++",
"++++++++++++++++++++++OO++++++++++++OO++++++++++++++++++++++++++",
"++++++++++++++++++++++OOOO++++++++++OO++++++++++++++++++++++++++",
"++++++++++++++++++++++OOOO++++++++++OO++++++++++++++++++++++++++",
"++++++++++++++++++OOOO++OO++++++++++OO++++++++++++++++++++++++++",
"++++++++++++++++++OOOO++OO++++++++++OO++++++++++++++++++++++++++",
"++++++++++++++++++++++++++++++++++++++OOOOOOOOOOOOOO++++++++++++",
"++++++++++++++++++++++++++++++++++++++OOOOOOOOOOOOOO++++++++++++"
};
