/* XPM */
static char *fire21740839005[] = {
/* columns rows colors chars-per-pixel */
"64 64 2 1 ",
"  c black",
". c #2C1916",
/* pixels */
"................................................................",
"................................................................",
"................................................................",
"................................................................",
"................................................................",
"................................................................",
"................................................................",
"................................................................",
"................................................................",
"................................................................",
"................................        ........    ............",
"................................        ........    ............",
"................................          ........      ........",
"................................          ........      ........",
"............  ....................          ........    ........",
"............  ....................          ........    ........",
"..........      ..................          ..........    ......",
"..........      ..................          ..........    ......",
"........        ..................            ........    ......",
"........        ..................            ........    ......",
"......          ................              ........      ....",
"......          ................              ........      ....",
"....            ................                ........    ....",
"....            ................                ........    ....",
"....          ..................                ........    ....",
"....          ..................                ........    ....",
"....          ................                    ......    ....",
"....          ................                    ......    ....",
"....          ................                    ......    ....",
"....          ................                    ......    ....",
"....            ............                      ......    ....",
"....            ............                      ......    ....",
"....                  ....                        ....      ....",
"....                  ....                        ....      ....",
"....                                              ....      ....",
"....                                              ....      ....",
"....                                                        ....",
"....                                                        ....",
"....                                                        ....",
"....                                                        ....",
"......                                                      ....",
"......                                                      ....",
"......                                                      ....",
"......                                                      ....",
"......                                                      ....",
"......                                                      ....",
"........                                                    ....",
"........                                                    ....",
"..........                                                  ....",
"..........                                                  ....",
"..........                                                  ....",
"..........                                                  ....",
"..........                                                  ....",
"..........                                                  ....",
"............                                              ......",
"............                                              ......",
"..............                                        ..........",
"..............                                        ..........",
"..............                                        ..........",
"..............                                        ..........",
"..............                                      ............",
"..............                                      ............",
"................                                  ..............",
"................                                  .............."
};
