/* XPM */
static char *result[] = {
/* columns rows colors chars-per-pixel */
"64 64 5 1 ",
"  c black",
". c red",
"X c #C5C5C5",
"o c white",
"O c None",
/* pixels */
"OOOOOOOOOOOOOOOOOOOOOOOOOOOOOOOOOOOOOOOOOOOOOOOOOOOOOOOOOOOOOOOO",
"OOOOOOOOOOOOOOOOOOOOOOOOOOOOOOOOOOOOOOOOOOOOOOOOOOOOOOOOOOOOOOOO",
"OOOOOOOOOOOOOOOOOOOOOOOOooooooooooooooooOOOOOOOOOOOOOOOOOOOOOOOO",
"OOOOOOOOOOOOOOOOOOOOOOOOooooooooooooooooOOOOOOOOOOOOOOOOOOOOOOOO",
"OOOOOOOOOOOOOOOOOOOOOOooooXXXXXXXXXXXXooooOOOOOOOOOOOOOOOOOOOOOO",
"OOOOOOOOOOOOOOOOOOOOOOooooXXXXXXXXXXXXooooOOOOOOOOOOOOOOOOOOOOOO",
"OOOOOOOOOOOOOOOOOOOOooXX  XXXXXXXXXXXX  XXooOOOOOOOOOOOOOOOOOOOO",
"OOOOOOOOOOOOOOOOOOOOooXX  XXXXXXXXXXXX  XXooOOOOOOOOOOOOOOOOOOOO",
"OOOOOOOOOOOOOOOOOOooooXXXX  XXXXXXXX  XXXXooooOOOOOOOOOOOOOOOOOO",
"OOOOOOOOOOOOOOOOOOooooXXXX  XXXXXXXX  XXXXooooOOOOOOOOOOOOOOOOOO",
"OOOOOOOOOOOOOOOOOOooXXXX  ..  XXXX  ..  XXXXooOOOOOOOOOOOOOOOOOO",
"OOOOOOOOOOOOOOOOOOooXXXX  ..  XXXX  ..  XXXXooOOOOOOOOOOOOOOOOOO",
"OOOOOOOOOOOOOOOOOOooXXXXXX  XXXXXXXX  XXXXXXooOOOOOOOOOOOOOOOOOO",
"OOOOOOOOOOOOOOOOOOooXXXXXX  XXXXXXXX  XXXXXXooOOOOOOOOOOOOOOOOOO",
"OOOOOOOOOOOOOOOOOOooXXXXXXXXXXXXXXXXXXXXXXXXooOOOOOOOOOOOOOOOOOO",
"OOOOOOOOOOOOOOOOOOooXXXXXXXXXXXXXXXXXXXXXXXXooOOOOOOOOOOOOOOOOOO",
"OOOOOOOOOOOOooOOOOooooXXXXXXXXXXXXXXXXXXXXooooOOOOooOOOOOOOOOOOO",
"OOOOOOOOOOOOooOOOOooooXXXXXXXXXXXXXXXXXXXXooooOOOOooOOOOOOOOOOOO",
"OOOOOOOOOOOOooOOOOOOooooXXXXXXXXXXXXXXXXooooOOOOOOooOOOOOOOOOOOO",
"OOOOOOOOOOOOooOOOOOOooooXXXXXXXXXXXXXXXXooooOOOOOOooOOOOOOOOOOOO",
"OOOOOOOOOOOOooOOOOOOOOooooooooooooooooooooOOOOOOOOooOOOOOOOOOOOO",
"OOOOOOOOOOOOooOOOOOOOOooooooooooooooooooooOOOOOOOOooOOOOOOOOOOOO",
"OOOOOOooOOOOooOOOOOOOOOOOOoo  oo  oo  OOOOOOOOOOOOooOOOOooOOOOOO",
"OOOOOOooOOOOooOOOOOOOOOOOOoo  oo  oo  OOOOOOOOOOOOooOOOOooOOOOOO",
"OOOOOOooOOOOooooOOOOOOOOOO            OOOOOOOOOOooooOOOOooOOOOOO",
"OOOOOOooOOOOooooOOOOOOOOOO            OOOOOOOOOOooooOOOOooOOOOOO",
"OOooOOooOOOOOOooOOOOOOOOOO  oo  oo  ooOOOOOOOOOOooOOOOOOooOOooOO",
"OOooOOooOOOOOOooOOOOOOOOOO  oo  oo  ooOOOOOOOOOOooOOOOOOooOOooOO",
"OOooOOooooOOOOooooOOOOOOOOooooooooooooOOOOOOOOooooOOOOooooOOooOO",
"OOooOOooooOOOOooooOOOOOOOOooooooooooooOOOOOOOOooooOOOOooooOOooOO",
"OOooOOOOooOOOOOOooooOOOOOOOOOOooooOOOOOOOOOOooooOOOOOOooOOOOooOO",
"OOooOOOOooOOOOOOooooOOOOOOOOOOooooOOOOOOOOOOooooOOOOOOooOOOOooOO",
"OOooOOOOooooOOOOOOooooooOOOOOOooooooOOOOooooooOOOOOOooooOOOOooOO",
"OOooOOOOooooOOOOOOooooooOOOOOOooooooOOOOooooooOOOOOOooooOOOOooOO",
"OOooOOOOooooOOOOOOooooooOOOOOOooooooooOOooooooOOOOOOooooOOOOooOO",
"OOooOOOOooooOOOOOOooooooOOOOOOooooooooOOooooooOOOOOOooooOOOOooOO",
"OOooooOOOOooooOOOOOOOOooooooooooooooooooooOOOOOOOOooooOOOOooooOO",
"OOooooOOOOooooOOOOOOOOooooooooooooooooooooOOOOOOOOooooOOOOooooOO",
"OOOOooooOOOOooooooOOOOOOOOOOOOooooOOOOooOOOOOOooooooOOOOooooOOOO",
"OOOOooooOOOOooooooOOOOOOOOOOOOooooOOOOooOOOOOOooooooOOOOooooOOOO",
"OOOOOOooooOOOOOOooooooooooooooooooooooooooooooooOOOOOOooooOOOOOO",
"OOOOOOooooOOOOOOooooooooooooooooooooooooooooooooOOOOOOooooOOOOOO",
"OOOOOOOOooooOOOOOOOOOOOOOOOOOOooooOOOOOOooooOOOOOOOOooooOOOOOOOO",
"OOOOOOOOooooOOOOOOOOOOOOOOOOOOooooOOOOOOooooOOOOOOOOooooOOOOOOOO",
"OOOOOOOOOOooooooooooooooooooooooooooooooooooooooooooooOOOOOOOOOO",
"OOOOOOOOOOooooooooooooooooooooooooooooooooooooooooooooOOOOOOOOOO",
"OOOOOOOOOOOOOOOOOOOOOOOOOOOOOOooooOOOOOOOOooOOOOOOOOOOOOOOOOOOOO",
"OOOOOOOOOOOOOOOOOOOOOOOOOOOOOOooooOOOOOOOOooOOOOOOOOOOOOOOOOOOOO",
"OOOOOOOOOOOOOOOOOOOOOOOOOOOOooooooOOOOOOOOooooOOOOOOOOOOOOOOOOOO",
"OOOOOOOOOOOOOOOOOOOOOOOOOOOOooooooOOOOOOOOooooOOOOOOOOOOOOOOOOOO",
"OOOOOOOOOOOOOOOOOOOOOOOOOOooooOOooOOOOOOOOOOooOOOOOOOOOOOOOOOOOO",
"OOOOOOOOOOOOOOOOOOOOOOOOOOooooOOooOOOOOOOOOOooOOOOOOOOOOOOOOOOOO",
"OOOOOOOOOOOOOOOOOOOOOOOOOOooOOOOooOOOOOOOOOOooOOOOOOOOOOOOOOOOOO",
"OOOOOOOOOOOOOOOOOOOOOOOOOOooOOOOooOOOOOOOOOOooOOOOOOOOOOOOOOOOOO",
"OOOOOOOOOOOOOOOOOOOOOOOOOOooOOOOooOOOOOOOOOOooOOOOOOOOOOOOOOOOOO",
"OOOOOOOOOOOOOOOOOOOOOOOOOOooOOOOooOOOOOOOOOOooOOOOOOOOOOOOOOOOOO",
"OOOOOOOOOOOOOOOOOOOOOOOOooooOOOOooOOOOOOOOOOooOOOOOOOOOOOOOOOOOO",
"OOOOOOOOOOOOOOOOOOOOOOOOooooOOOOooOOOOOOOOOOooOOOOOOOOOOOOOOOOOO",
"OOOOOOOOOOOOOOOOOOOOOOooooOOOOOOOOOOOOOOooooooooOOOOOOOOOOOOOOOO",
"OOOOOOOOOOOOOOOOOOOOOOooooOOOOOOOOOOOOOOooooooooOOOOOOOOOOOOOOOO",
"OOOOOOOOOOOOOOOOOOOOOOooOOOOOOOOOOOOOOooooooooooOOOOOOOOOOOOOOOO",
"OOOOOOOOOOOOOOOOOOOOOOooOOOOOOOOOOOOOOooooooooooOOOOOOOOOOOOOOOO",
"OOOOOOOOOOOOOOOOOOOOooOOooOOOOOOOOOOOOooOOooOOooOOOOOOOOOOOOOOOO",
"OOOOOOOOOOOOOOOOOOOOooOOooOOOOOOOOOOOOooOOooOOooOOOOOOOOOOOOOOOO"
};
