/* XPM */
static char *result[] = {
/* columns rows colors chars-per-pixel */
"64 64 5 1 ",
"  c black",
". c red",
"X c #C5C5C5",
"o c white",
"O c None",
/* pixels */
"OOOOOOOOOOOOOOOOOOOOOOOOOOOOOOOOOOOOOOOOOOOOOOOOOOOOOOOOOOOOOOOO",
"OOOOOOOOOOOOOOOOOOOOOOOOOOOOOOOOOOOOOOOOOOOOOOOOOOOOOOOOOOOOOOOO",
"OOOOOOOOOOOOOOOOOOOOOOOOOOOOOOOOOOOOOOOOOOOOOOOOOOOOOOOOOOOOOOOO",
"OOOOOOOOOOOOOOOOOOOOOOOOOOOOOOOOOOOOOOOOOOOOOOOOOOOOOOOOOOOOOOOO",
"OOOOOOOOOOOOOOOOOOOOOOOOOOOOOOOOOOOOOOOOOOOOOOOOOOOOOOOOOOOOOOOO",
"OOOOOOOOOOOOOOOOOOOOOOOOOOOOOOOOOOOOOOOOOOOOOOOOOOOOOOOOOOOOOOOO",
"OOOOOOOOOOOOOOOOOOOOOOOOOOOOooooooooooooooooOOOOOOOOOOOOOOOOOOOO",
"OOOOOOOOOOOOOOOOOOOOOOOOOOOOooooooooooooooooOOOOOOOOOOOOOOOOOOOO",
"OOOOOOOOOOOOOOOOOOOOOOOOOOooooXXXXXXXXXXXXooooOOOOOOOOOOOOOOOOOO",
"OOOOOOOOOOOOOOOOOOOOOOOOOOooooXXXXXXXXXXXXooooOOOOOOOOOOOOOOOOOO",
"OOOOOOOOOOOOOOOOOOOOOOOOooXX  XXXXXXXXXXXX  XXooooOOOOOOOOOOOOOO",
"OOOOOOOOOOOOOOOOOOOOOOOOooXX  XXXXXXXXXXXX  XXooooOOOOOOOOOOOOOO",
"OOOOOOOOOOOOOOOOOOOOOOOOooooXX  XXXXXXXX  XXXXooooOOOOOOOOOOOOOO",
"OOOOOOOOOOOOOOOOOOOOOOOOooooXX  XXXXXXXX  XXXXooooOOOOOOOOOOOOOO",
"OOOOOOOOOOOOOOOOOOOOOOOOooXXXX..  XXXX  ..  XXXXooOOOOOOOOOOOOOO",
"OOOOOOOOOOOOOOOOOOOOOOOOooXXXX..  XXXX  ..  XXXXooOOOOOOOOOOOOOO",
"OOOOOOOOOOOOOOOOOOOOOOooooXXXXXXXXXXXXXX  XXXXXXOOOOOOOOOOOOOOOO",
"OOOOOOOOOOOOOOOOOOOOOOooooXXXXXXXXXXXXXX  XXXXXXOOOOOOOOOOOOOOOO",
"OOOOOOOOOOOOOOooOOOOOOooooXXXXXXXXXXXXXXXXXXXXooOOooOOOOOOOOOOOO",
"OOOOOOOOOOOOOOooOOOOOOooooXXXXXXXXXXXXXXXXXXXXooOOooOOOOOOOOOOOO",
"OOOOOOOOOOOOOOooOOOOOOOOooooXXXXXXXXXXXXXXooooOOOOooOOOOOOOOOOOO",
"OOOOOOOOOOOOOOooOOOOOOOOooooXXXXXXXXXXXXXXooooOOOOooOOOOOOOOOOOO",
"OOOOOOOOOOOOOOooOOOOOOOOOOOOooXXXXXXXXXXooooOOOOOOooOOOOOOOOOOOO",
"OOOOOOOOOOOOOOooOOOOOOOOOOOOooXXXXXXXXXXooooOOOOOOooOOOOOOOOOOOO",
"OOOOOOOOooOOOOooooOOOOOOOOOO  ooooooooooooOOOOOOOOooOOOOooOOOOOO",
"OOOOOOOOooOOOOooooOOOOOOOOOO  ooooooooooooOOOOOOOOooOOOOooOOOOOO",
"OOOOOOOOooOOOOooooOOOOOOOOOO    oo  oo  OOOOOOOOOOooOOOOooOOOOOO",
"OOOOOOOOooOOOOooooOOOOOOOOOO    oo  oo  OOOOOOOOOOooOOOOooOOOOOO",
"OOOOOOooOOOOOOOOooooOOOOOOOOoooo        OOOOOOOOooOOOOOOooOOOOOO",
"OOOOOOooOOOOOOOOooooOOOOOOOOoooo        OOOOOOOOooOOOOOOooOOOOOO",
"OOOOOOooOOooooOOOOooooOOOOOOOOOO  oo  ooOOOOOOOOooOOOOooooOOOOOO",
"OOOOOOooOOooooOOOOooooOOOOOOOOOO  oo  ooOOOOOOOOooOOOOooooOOOOOO",
"OOOOOOooOOOOooOOOOOOooooooOOOOOOooooooooOOOOOOOOooOOOOooOOOOOOOO",
"OOOOOOooOOOOooOOOOOOooooooOOOOOOooooooooOOOOOOOOooOOOOooOOOOOOOO",
"OOOOOOooOOOOooooOOOOooooooOOOOOOooooOOOOOOOOOOooooOOooooOOOOOOOO",
"OOOOOOooOOOOooooOOOOooooooOOOOOOooooOOOOOOOOOOooooOOooooOOOOOOOO",
"OOOOOOooOOOOooooooOOOOOOooooooooooooooOOOOooooooOOOOOOooOOOOOOOO",
"OOOOOOooOOOOooooooOOOOOOooooooooooooooOOOOooooooOOOOOOooOOOOOOOO",
"OOOOOOooooOOOOooooooooOOOOOOOOOOooooooooOOooooooOOOOooooOOooOOOO",
"OOOOOOooooOOOOooooooooOOOOOOOOOOooooooooOOooooooOOOOooooOOooOOOO",
"OOOOOOOOooooOOOOOOOOooooooooooooooooooooooooOOOOOOooooOOOOooOOOO",
"OOOOOOOOooooOOOOOOOOooooooooooooooooooooooooOOOOOOooooOOOOooOOOO",
"OOOOOOOOOOooooOOOOOOOOOOOOOOOOOOooooOOOOooOOOOOOooOOOOOOooooOOOO",
"OOOOOOOOOOooooOOOOOOOOOOOOOOOOOOooooOOOOooOOOOOOooOOOOOOooooOOOO",
"OOOOOOOOOOOOooooOOooooooooooooooooooooooooooooooooOOOOooooOOOOOO",
"OOOOOOOOOOOOooooOOooooooooooooooooooooooooooooooooOOOOooooOOOOOO",
"OOOOOOOOOOOOOOooooOOOOOOOOOOOOOOooooOOOOOOooooOOOOooooooOOOOOOOO",
"OOOOOOOOOOOOOOooooOOOOOOOOOOOOOOooooOOOOOOooooOOOOooooooOOOOOOOO",
"OOOOOOOOOOOOOOOOOOOOOOOOOOOOOOooooOOOOOOooooooooooOOOOOOOOOOOOOO",
"OOOOOOOOOOOOOOOOOOOOOOOOOOOOOOooooOOOOOOooooooooooOOOOOOOOOOOOOO",
"OOOOOOOOOOOOOOOOOOOOOOOOOOooooOOooOOOOOOOOooOOOOOOOOOOOOOOOOOOOO",
"OOOOOOOOOOOOOOOOOOOOOOOOOOooooOOooOOOOOOOOooOOOOOOOOOOOOOOOOOOOO",
"OOOOOOOOOOOOOOOOOOOOOOOOOOooOOOOooOOOOOOOOooOOOOOOOOOOOOOOOOOOOO",
"OOOOOOOOOOOOOOOOOOOOOOOOOOooOOOOooOOOOOOOOooOOOOOOOOOOOOOOOOOOOO",
"OOOOOOOOOOOOOOOOOOOOOOOOOOooOOOOooOOOOOOOOooOOOOOOOOOOOOOOOOOOOO",
"OOOOOOOOOOOOOOOOOOOOOOOOOOooOOOOooOOOOOOOOooOOOOOOOOOOOOOOOOOOOO",
"OOOOOOOOOOOOOOOOOOOOOOOOooooOOOOooOOOOOOOOOOooooOOOOOOOOOOOOOOOO",
"OOOOOOOOOOOOOOOOOOOOOOOOooooOOOOooOOOOOOOOOOooooOOOOOOOOOOOOOOOO",
"OOOOOOOOOOOOOOOOOOOOOOooooOOOOOOOOOOOOOOooooooooOOOOOOOOOOOOOOOO",
"OOOOOOOOOOOOOOOOOOOOOOooooOOOOOOOOOOOOOOooooooooOOOOOOOOOOOOOOOO",
"OOOOOOOOOOOOOOOOOOOOOOooOOOOOOOOOOOOOOooooooOOooOOOOOOOOOOOOOOOO",
"OOOOOOOOOOOOOOOOOOOOOOooOOOOOOOOOOOOOOooooooOOooOOOOOOOOOOOOOOOO",
"OOOOOOOOOOOOOOOOOOOOooOOooOOOOOOOOOOOOooOOooOOOOOOOOOOOOOOOOOOOO",
"OOOOOOOOOOOOOOOOOOOOooOOooOOOOOOOOOOOOooOOooOOOOOOOOOOOOOOOOOOOO"
};
