/* XPM */
static char *result[] = {
/* columns rows colors chars-per-pixel */
"64 64 5 1 ",
"  c black",
". c red",
"X c #C5C5C5",
"o c white",
"O c None",
/* pixels */
"OOOOOOOOOOOOOOOOOOOOOOOOOOOOOOOOOOOOOOOOOOOOOOOOOOOOOOOOOOOOOOOO",
"OOOOOOOOOOOOOOOOOOOOOOOOOOOOOOOOOOOOOOOOOOOOOOOOOOOOOOOOOOOOOOOO",
"OOOOOOOOOOOOOOOOOOOOOOOOOOOOOOOOOOOOOOOOOOOOOOOOOOOOOOOOOOOOOOOO",
"OOOOOOOOOOOOOOOOOOOOOOOOOOOOOOOOOOOOOOOOOOOOOOOOOOOOOOOOOOOOOOOO",
"OOOOOOOOOOOOOOOOOOOOOOOOOOooooooooooooooooOOOOOOOOOOOOOOOOOOOOOO",
"OOOOOOOOOOOOOOOOOOOOOOOOOOooooooooooooooooOOOOOOOOOOOOOOOOOOOOOO",
"OOOOOOOOOOOOOOOOOOOOOOOOooooXXXXXXXXXXXXooooOOOOOOOOOOOOOOOOOOOO",
"OOOOOOOOOOOOOOOOOOOOOOOOooooXXXXXXXXXXXXooooOOOOOOOOOOOOOOOOOOOO",
"OOOOOOOOOOOOOOOOOOOOooooXX  XXXXXXXXXXXX  XXooOOOOOOOOOOOOOOOOOO",
"OOOOOOOOOOOOOOOOOOOOooooXX  XXXXXXXXXXXX  XXooOOOOOOOOOOOOOOOOOO",
"OOOOOOOOOOOOOOOOOOOOooooXXXX  XXXXXXXX  XXXXooooOOOOOOOOOOOOOOOO",
"OOOOOOOOOOOOOOOOOOOOooooXXXX  XXXXXXXX  XXXXooooOOOOOOOOOOOOOOOO",
"OOOOOOOOOOOOOOOOOOOOooXXXX  ..  XXXX  ..  XXXXooOOOOOOOOOOOOOOOO",
"OOOOOOOOOOOOOOOOOOOOooXXXX  ..  XXXX  ..  XXXXooOOOOOOOOOOOOOOOO",
"OOOOOOOOOOOOOOOOOOOOooXXXXXX  XXXXXXXX  XXXXXXooOOOOOOOOOOOOOOOO",
"OOOOOOOOOOOOOOOOOOOOooXXXXXX  XXXXXXXX  XXXXXXooOOOOOOOOOOOOOOOO",
"OOOOOOOOOOOOooOOOOooooXXXXXXXXXXXXXXXXXXXXXXXXooOOOOOOOOOOOOOOOO",
"OOOOOOOOOOOOooOOOOooooXXXXXXXXXXXXXXXXXXXXXXXXooOOOOOOOOOOOOOOOO",
"OOOOOOOOOOOOooOOOOOOooooXXXXXXXXXXXXXXXXXXooooOOOOooOOOOOOOOOOOO",
"OOOOOOOOOOOOooOOOOOOooooXXXXXXXXXXXXXXXXXXooooOOOOooOOOOOOOOOOOO",
"OOOOOOOOOOOOooOOOOOOOOooooXXXXXXXXXXXXXXooooOOOOOOooOOOOOOOOOOOO",
"OOOOOOOOOOOOooOOOOOOOOooooXXXXXXXXXXXXXXooooOOOOOOooOOOOOOOOOOOO",
"OOOOOOooOOOOooOOOOOOOOOOOOooooooooooooooooOOOOOOOOooOOOOOOOOOOOO",
"OOOOOOooOOOOooOOOOOOOOOOOOooooooooooooooooOOOOOOOOooOOOOOOOOOOOO",
"OOOOOOooOOOOooooOOOOOOOOOO    oo  oo  OOOOOOOOOOOOooOOOOooOOOOOO",
"OOOOOOooOOOOooooOOOOOOOOOO    oo  oo  OOOOOOOOOOOOooOOOOooOOOOOO",
"OOooOOooOOOOOOooOOOOOOOOOO  oo        OOOOOOOOOOooooOOOOooOOOOOO",
"OOooOOooOOOOOOooOOOOOOOOOO  oo        OOOOOOOOOOooooOOOOooOOOOOO",
"OOooOOooooOOOOooooOOOOOOOOoooo  oo  ooOOOOOOOOOOooOOOOOOooOOooOO",
"OOooOOooooOOOOooooOOOOOOOOoooo  oo  ooOOOOOOOOOOooOOOOOOooOOooOO",
"OOooOOOOooOOOOOOooooOOOOOOOOOOooooooooOOOOOOOOooooOOOOooooOOooOO",
"OOooOOOOooOOOOOOooooOOOOOOOOOOooooooooOOOOOOOOooooOOOOooooOOooOO",
"OOooOOOOooooOOOOOOooooooOOOOOOooooOOOOOOOOOOooooOOOOOOooOOOOooOO",
"OOooOOOOooooOOOOOOooooooOOOOOOooooOOOOOOOOOOooooOOOOOOooOOOOooOO",
"OOooOOOOooooOOOOOOooooooOOOOOOooooooOOOOooooooOOOOOOooooOOOOooOO",
"OOooOOOOooooOOOOOOooooooOOOOOOooooooOOOOooooooOOOOOOooooOOOOooOO",
"OOooooOOOOooooOOOOOOOOooooooooooooooooOOooooooOOOOOOooooOOOOooOO",
"OOooooOOOOooooOOOOOOOOooooooooooooooooOOooooooOOOOOOooooOOOOooOO",
"OOOOooooOOOOooooooOOOOOOOOOOOOooooooooooooOOOOOOOOooooOOOOooooOO",
"OOOOooooOOOOooooooOOOOOOOOOOOOooooooooooooOOOOOOOOooooOOOOooooOO",
"OOOOOOooooOOOOOOooooooooooooooooooooOOooOOOOOOooooooOOOOooooOOOO",
"OOOOOOooooOOOOOOooooooooooooooooooooOOooOOOOOOooooooOOOOooooOOOO",
"OOOOOOOOooooOOOOOOOOOOOOOOOOOOooooOOooooooooooooOOOOOOooooOOOOOO",
"OOOOOOOOooooOOOOOOOOOOOOOOOOOOooooOOooooooooooooOOOOOOooooOOOOOO",
"OOOOOOOOOOooooooooooooooooooooooooooooOOooooOOOOOOOOooooOOOOOOOO",
"OOOOOOOOOOooooooooooooooooooooooooooooOOooooOOOOOOOOooooOOOOOOOO",
"OOOOOOOOOOOOOOOOOOOOOOOOOOOOOOooooOOOOooooooooooooooooOOOOOOOOOO",
"OOOOOOOOOOOOOOOOOOOOOOOOOOOOOOooooOOOOooooooooooooooooOOOOOOOOOO",
"OOOOOOOOOOOOOOOOOOOOOOOOOOooooooOOOOOOOOOOooooOOOOOOOOOOOOOOOOOO",
"OOOOOOOOOOOOOOOOOOOOOOOOOOooooooOOOOOOOOOOooooOOOOOOOOOOOOOOOOOO",
"OOOOOOOOOOOOOOOOOOOOOOOOooooOOooOOOOOOOOOOOOooOOOOOOOOOOOOOOOOOO",
"OOOOOOOOOOOOOOOOOOOOOOOOooooOOooOOOOOOOOOOOOooOOOOOOOOOOOOOOOOOO",
"OOOOOOOOOOOOOOOOOOOOOOOOooOOOOooOOOOOOOOOOOOooOOOOOOOOOOOOOOOOOO",
"OOOOOOOOOOOOOOOOOOOOOOOOooOOOOooOOOOOOOOOOOOooOOOOOOOOOOOOOOOOOO",
"OOOOOOOOOOOOOOOOOOOOOOOOooOOOOooOOOOOOOOOOOOooOOOOOOOOOOOOOOOOOO",
"OOOOOOOOOOOOOOOOOOOOOOOOooOOOOooOOOOOOOOOOOOooOOOOOOOOOOOOOOOOOO",
"OOOOOOOOOOOOOOOOOOOOOOooooOOOOooOOOOOOOOOOOOooOOOOOOOOOOOOOOOOOO",
"OOOOOOOOOOOOOOOOOOOOOOooooOOOOooOOOOOOOOOOOOooOOOOOOOOOOOOOOOOOO",
"OOOOOOOOOOOOOOOOOOOOooooOOOOOOOOOOOOOOOOooooooooOOOOOOOOOOOOOOOO",
"OOOOOOOOOOOOOOOOOOOOooooOOOOOOOOOOOOOOOOooooooooOOOOOOOOOOOOOOOO",
"OOOOOOOOOOOOOOOOOOOOooOOOOOOOOOOOOOOOOooooooooooOOOOOOOOOOOOOOOO",
"OOOOOOOOOOOOOOOOOOOOooOOOOOOOOOOOOOOOOooooooooooOOOOOOOOOOOOOOOO",
"OOOOOOOOOOOOOOOOOOooOOooOOOOOOOOOOOOOOooOOooOOooOOOOOOOOOOOOOOOO",
"OOOOOOOOOOOOOOOOOOooOOooOOOOOOOOOOOOOOooOOooOOooOOOOOOOOOOOOOOOO"
};
