/* XPM */
static char *result[] = {
/* columns rows colors chars-per-pixel */
"64 64 5 1 ",
"  c black",
". c red",
"X c #C5C5C5",
"o c white",
"O c None",
/* pixels */
"OOOOOOOOOOOOOOOOOOOOOOOOOOOOOOOOOOOOOOOOOOOOOOOOOOOOOOOOOOOOOOOO",
"OOOOOOOOOOOOOOOOOOOOOOOOOOOOOOOOOOOOOOOOOOOOOOOOOOOOOOOOOOOOOOOO",
"OOOOOOOOOOOOOOOOOOOOOOOOOOOOOOOOOOOOOOOOOOOOOOOOOOOOOOOOOOOOOOOO",
"OOOOOOOOOOOOOOOOOOOOOOOOOOOOOOOOOOOOOOOOOOOOOOOOOOOOOOOOOOOOOOOO",
"OOOOOOOOOOOOOOOOOOOOOOOOOOOOOOOOOOOOOOOOOOOOOOOOOOOOOOOOOOOOOOOO",
"OOOOOOOOOOOOOOOOOOOOOOOOOOOOOOOOOOOOOOOOOOOOOOOOOOOOOOOOOOOOOOOO",
"OOOOOOOOOOOOOOOOOOOOOOOOOOOOOOOOooooooooooooooooOOOOOOOOOOOOOOOO",
"OOOOOOOOOOOOOOOOOOOOOOOOOOOOOOOOooooooooooooooooOOOOOOOOOOOOOOOO",
"OOOOOOOOOOOOOOOOOOOOOOOOOOOOOOooooXXXXXXXXXXXXooooOOOOOOOOOOOOOO",
"OOOOOOOOOOOOOOOOOOOOOOOOOOOOOOooooXXXXXXXXXXXXooooOOOOOOOOOOOOOO",
"OOOOOOOOOOOOOOOOOOOOOOOOOOooooXX  XXXXXXXXXXXX  XXooOOOOOOOOOOOO",
"OOOOOOOOOOOOOOOOOOOOOOOOOOooooXX  XXXXXXXXXXXX  XXooOOOOOOOOOOOO",
"OOOOOOOOOOOOOOOOOOOOOOOOOOooooXXXX  XXXXXXXX  XXXXooooOOOOOOOOOO",
"OOOOOOOOOOOOOOOOOOOOOOOOOOooooXXXX  XXXXXXXX  XXXXooooOOOOOOOOOO",
"OOOOOOOOOOOOOOOOOOOOOOOOOOooXXXX  ..  XXXX  ..  XXXXooOOOOOOOOOO",
"OOOOOOOOOOOOOOOOOOOOOOOOOOooXXXX  ..  XXXX  ..  XXXXooOOOOOOOOOO",
"OOOOOOOOOOOOOOOOooOOOOOOooooXXXXXX  XXXXXXXX  XXXXXXooOOOOOOOOOO",
"OOOOOOOOOOOOOOOOooOOOOOOooooXXXXXX  XXXXXXXX  XXXXXXooOOOOOOOOOO",
"OOOOOOOOOOOOOOOOooOOOOOOooooXXXXXXXXXXXXXXXXXXXXXXooOOOOOOOOOOOO",
"OOOOOOOOOOOOOOOOooOOOOOOooooXXXXXXXXXXXXXXXXXXXXXXooOOOOOOOOOOOO",
"OOOOOOOOOOOOOOOOooOOOOOOOOooooXXXXXXXXXXXXXXXXooooOOOOooOOOOOOOO",
"OOOOOOOOOOOOOOOOooOOOOOOOOooooXXXXXXXXXXXXXXXXooooOOOOooOOOOOOOO",
"OOOOOOOOOOooOOOOooOOOOOOOOOOOOooXXXXXXXXXXXXooooOOOOOOooOOOOOOOO",
"OOOOOOOOOOooOOOOooOOOOOOOOOOOOooXXXXXXXXXXXXooooOOOOOOooOOOOOOOO",
"OOOOOOOOOOooOOOOooooOOOOOOOOOO  ooooooooooooooOOOOOOOOooOOOOOOOO",
"OOOOOOOOOOooOOOOooooOOOOOOOOOO  ooooooooooooooOOOOOOOOooOOOOOOOO",
"OOOOOOooOOooOOOOOOooOOOOOOOOOO    oo  oo  OOOOOOOOOOOOooOOOOooOO",
"OOOOOOooOOooOOOOOOooOOOOOOOOOO    oo  oo  OOOOOOOOOOOOooOOOOooOO",
"OOOOOOooOOooooOOOOooooOOOOOOOOoooo        OOOOOOOOOOooooOOOOooOO",
"OOOOOOooOOooooOOOOooooOOOOOOOOoooo        OOOOOOOOOOooooOOOOooOO",
"OOOOOOooOOOOooOOOOOOooooOOOOOOOOOO  oo  ooOOOOOOOOOOooOOOOOOooOO",
"OOOOOOooOOOOooOOOOOOooooOOOOOOOOOO  oo  ooOOOOOOOOOOooOOOOOOooOO",
"OOOOOOooOOOOooooOOOOOOooooooOOOOOOooooooooOOOOOOOOooooOOOOooooOO",
"OOOOOOooOOOOooooOOOOOOooooooOOOOOOooooooooOOOOOOOOooooOOOOooooOO",
"OOOOOOooOOOOooooOOOOOOooooooOOOOOOooooOOOOOOOOOOooooOOOOOOooOOOO",
"OOOOOOooOOOOooooOOOOOOooooooOOOOOOooooOOOOOOOOOOooooOOOOOOooOOOO",
"OOOOOOooooOOOOooooOOOOOOOOooooooooooooooOOOOooooooOOOOOOooooOOOO",
"OOOOOOooooOOOOooooOOOOOOOOooooooooooooooOOOOooooooOOOOOOooooOOOO",
"OOOOOOOOooooOOOOooooooOOOOOOOOOOOOooooooooOOooooooOOOOOOooooOOOO",
"OOOOOOOOooooOOOOooooooOOOOOOOOOOOOooooooooOOooooooOOOOOOooooOOOO",
"OOOOOOOOOOooooOOOOOOooooooooooooooooooooooooooOOOOOOOOooooOOOOOO",
"OOOOOOOOOOooooOOOOOOooooooooooooooooooooooooooOOOOOOOOooooOOOOOO",
"OOOOOOOOOOOOooooOOOOOOOOOOOOOOOOOOooooOOOOooOOOOOOooooooOOOOooOO",
"OOOOOOOOOOOOooooOOOOOOOOOOOOOOOOOOooooOOOOooOOOOOOooooooOOOOooOO",
"OOOOOOOOOOOOOOooooooooooooooooooooooooooooooooooooooOOOOOOooooOO",
"OOOOOOOOOOOOOOooooooooooooooooooooooooooooooooooooooOOOOOOooooOO",
"OOOOOOOOOOOOOOOOOOOOOOOOOOOOOOOOOOooooOOOOOOooooOOOOOOOOooooooOO",
"OOOOOOOOOOOOOOOOOOOOOOOOOOOOOOOOOOooooOOOOOOooooOOOOOOOOooooooOO",
"OOOOOOOOOOOOOOOOOOOOOOOOOOOOooooooooOOOOOOooooooooooooooooOOOOOO",
"OOOOOOOOOOOOOOOOOOOOOOOOOOOOooooooooOOOOOOooooooooooooooooOOOOOO",
"OOOOOOOOOOOOOOOOOOOOOOOOOOOOooOOooOOOOOOOOOOooOOOOOOOOOOOOOOOOOO",
"OOOOOOOOOOOOOOOOOOOOOOOOOOOOooOOooOOOOOOOOOOooOOOOOOOOOOOOOOOOOO",
"OOOOOOOOOOOOOOOOOOOOOOOOOOOOooOOooOOOOOOOOOOooOOOOOOOOOOOOOOOOOO",
"OOOOOOOOOOOOOOOOOOOOOOOOOOOOooOOooOOOOOOOOOOooOOOOOOOOOOOOOOOOOO",
"OOOOOOOOOOOOOOOOOOOOOOOOOOooOOOOooOOOOOOOOOOooOOOOOOOOOOOOOOOOOO",
"OOOOOOOOOOOOOOOOOOOOOOOOOOooOOOOooOOOOOOOOOOooOOOOOOOOOOOOOOOOOO",
"OOOOOOOOOOOOOOOOOOOOOOOOOOooOOOOooOOOOOOOOOOooOOOOOOOOOOOOOOOOOO",
"OOOOOOOOOOOOOOOOOOOOOOOOOOooOOOOooOOOOOOOOOOooOOOOOOOOOOOOOOOOOO",
"OOOOOOOOOOOOOOOOOOOOOOOOooOOOOOOOOOOOOOOooooooooOOOOOOOOOOOOOOOO",
"OOOOOOOOOOOOOOOOOOOOOOOOooOOOOOOOOOOOOOOooooooooOOOOOOOOOOOOOOOO",
"OOOOOOOOOOOOOOOOOOOOOOOOOOOOOOOOOOOOOOooooooooooOOOOOOOOOOOOOOOO",
"OOOOOOOOOOOOOOOOOOOOOOOOOOOOOOOOOOOOOOooooooooooOOOOOOOOOOOOOOOO",
"OOOOOOOOOOOOOOOOOOOOOOOOOOOOOOOOOOOOOOooOOooOOooOOOOOOOOOOOOOOOO",
"OOOOOOOOOOOOOOOOOOOOOOOOOOOOOOOOOOOOOOooOOooOOooOOOOOOOOOOOOOOOO"
};
