/* XPM */
static char *result[] = {
/* columns rows colors chars-per-pixel */
"64 64 5 1 ",
"  c black",
". c red",
"X c #C5C5C5",
"o c white",
"O c #2C1916",
/* pixels */
"OOOOOOOOOOOOOOOOOOOOOOOOOOOOOOOOOOOOOOOOOOOOOOOOOOOOOOOOOOOOOOOO",
"OOOOOOOOOOOOOOOOOOOOOOOOOOOOOOOOOOOOOOOOOOOOOOOOOOOOOOOOOOOOOOOO",
"OOOOOOOOOOOOOOOOOOOOOOOOOOOOOOOOOOOOOOOOOOOOOOOOOOOOOOOOOOOOOOOO",
"OOOOOOOOOOOOOOOOOOOOOOOOOOOOOOOOOOOOOOOOOOOOOOOOOOOOOOOOOOOOOOOO",
"OOOOOOOOOOOOOOOOOOOOOOOOOOOOOOooooooooooOOOOOOOOOOOOOOOOOOOOOOOO",
"OOOOOOOOOOOOOOOOOOOOOOOOOOOOOOooooooooooOOOOOOOOOOOOOOOOOOOOOOOO",
"OOOOOOOOOOOOOOOOOOOOOOOOOOooooXXXXXXXXXXooOOOOOOOOOOOOOOOOOOOOOO",
"OOOOOOOOOOOOOOOOOOOOOOOOOOooooXXXXXXXXXXooOOOOOOOOOOOOOOOOOOOOOO",
"OOOOOOOOOOOOOOOOOOOOOOOOooooXXXXXXXXXXXX  XXooOOOOOOOOOOOOOOOOOO",
"OOOOOOOOOOOOOOOOOOOOOOOOooooXXXXXXXXXXXX  XXooOOOOOOOOOOOOOOOOOO",
"OOOOOOOOOOOOOOOOOOOOOOooXX  XXXXXXXXXX  XXXXooooOOOOOOOOOOOOOOOO",
"OOOOOOOOOOOOOOOOOOOOOOooXX  XXXXXXXXXX  XXXXooooOOOOOOOOOOOOOOOO",
"OOOOOOOOOOOOOOOOOOOOOOooooXX    XXXX  ..  XXXXooOOOOOOOOOOOOOOOO",
"OOOOOOOOOOOOOOOOOOOOOOooooXX    XXXX  ..  XXXXooOOOOOOOOOOOOOOOO",
"OOOOOOOOOOOOOOOOOOOOOOooXXXX..XXXXXXXX  XXXXXXOOOOOOOOOOOOOOOOOO",
"OOOOOOOOOOOOOOOOOOOOOOooXXXX..XXXXXXXX  XXXXXXOOOOOOOOOOOOOOOOOO",
"OOOOOOOOOOOOOOOOOOOOooooXXXXXXXXXXXXXXXXXXXXooOOooOOOOOOOOOOOOOO",
"OOOOOOOOOOOOOOOOOOOOooooXXXXXXXXXXXXXXXXXXXXooOOooOOOOOOOOOOOOOO",
"OOOOOOOOOOOOooOOOOOOooooXXXXXXXXXXXXXXXXooooOOOOooOOOOOOOOOOOOOO",
"OOOOOOOOOOOOooOOOOOOooooXXXXXXXXXXXXXXXXooooOOOOooOOOOOOOOOOOOOO",
"OOOOOOOOOOOOooOOOOOOOOooooXXXXXXXXXXXXooooOOOOOOooOOOOooOOOOOOOO",
"OOOOOOOOOOOOooOOOOOOOOooooXXXXXXXXXXXXooooOOOOOOooOOOOooOOOOOOOO",
"OOOOOOOOOOOOooOOOOOOOOOOOOooXXXXooooooooOOOOOOOOooOOOOooOOOOOOOO",
"OOOOOOOOOOOOooOOOOOOOOOOOOooXXXXooooooooOOOOOOOOooOOOOooOOOOOOOO",
"OOOOOOOOOOOOooooOOOOOOOOOO  oooo  oo  OOOOOOOOOOooOOOOooOOOOOOOO",
"OOOOOOOOOOOOooooOOOOOOOOOO  oooo  oo  OOOOOOOOOOooOOOOooOOOOOOOO",
"OOOOOOOOooOOOOooOOOOOOOOOO    oo      OOOOOOOOooOOOOooooOOOOOOOO",
"OOOOOOOOooOOOOooOOOOOOOOOO    oo      OOOOOOOOooOOOOooooOOOOOOOO",
"OOOOOOOOooOOOOOOooooOOOOOOoooo  oo  ooOOOOOOOOooOOOOooOOOOOOOOOO",
"OOOOOOOOooOOOOOOooooOOOOOOoooo  oo  ooOOOOOOOOooOOOOooOOOOOOOOOO",
"OOOOOOooOOOOooOOOOooooOOOOOOOO  ooooooOOOOOOOOooOOOOooOOOOOOOOOO",
"OOOOOOooOOOOooOOOOooooOOOOOOOO  ooooooOOOOOOOOooOOOOooOOOOOOOOOO",
"OOOOOOooOOooooOOOOOOooooooOOOOOOooOOOOOOOOOOooooOOooooOOOOOOOOOO",
"OOOOOOooOOooooOOOOOOooooooOOOOOOooOOOOOOOOOOooooOOooooOOOOOOOOOO",
"OOOOOOooOOOOooooOOOOooooooOOOOOOooooooOOooooooOOOOOOooOOooOOOOOO",
"OOOOOOooOOOOooooOOOOooooooOOOOOOooooooOOooooooOOOOOOooOOooOOOOOO",
"OOOOOOooOOOOooooooOOOOOOooooooooooooooooOOooooOOOOooOOOOooOOOOOO",
"OOOOOOooOOOOooooooOOOOOOooooooooooooooooOOooooOOOOooOOOOooOOOOOO",
"OOOOOOooOOOOOOooooooooOOOOOOOOOOooooooooooooOOOOooooOOooooOOOOOO",
"OOOOOOooOOOOOOooooooooOOOOOOOOOOooooooooooooOOOOooooOOooooOOOOOO",
"OOOOOOooooOOOOOOOOOOooooooooooooooooOOOOooOOOOOOooOOooooOOOOOOOO",
"OOOOOOooooOOOOOOOOOOooooooooooooooooOOOOooOOOOOOooOOooooOOOOOOOO",
"OOOOOOOOooooooOOOOOOOOOOOOOOOOOOooooooooooooooooooOOooooOOOOOOOO",
"OOOOOOOOooooooOOOOOOOOOOOOOOOOOOooooooooooooooooooOOooooOOOOOOOO",
"OOOOOOOOOOooooooOOooooooooooooooooooOOOOOOooooOOOOooOOOOOOOOOOOO",
"OOOOOOOOOOooooooOOooooooooooooooooooOOOOOOooooOOOOooOOOOOOOOOOOO",
"OOOOOOOOOOOOOOooooOOOOOOOOOOOOooooOOOOOOooooooooooOOOOOOOOOOOOOO",
"OOOOOOOOOOOOOOooooOOOOOOOOOOOOooooOOOOOOooooooooooOOOOOOOOOOOOOO",
"OOOOOOOOOOOOOOOOOOOOOOOOOOooooOOooOOOOOOOOOOooOOOOOOOOOOOOOOOOOO",
"OOOOOOOOOOOOOOOOOOOOOOOOOOooooOOooOOOOOOOOOOooOOOOOOOOOOOOOOOOOO",
"OOOOOOOOOOOOOOOOOOOOOOOOOOooOOOOooOOOOOOOOOOooOOOOOOOOOOOOOOOOOO",
"OOOOOOOOOOOOOOOOOOOOOOOOOOooOOOOooOOOOOOOOOOooOOOOOOOOOOOOOOOOOO",
"OOOOOOOOOOOOOOOOOOOOOOOOOOooOOOOooOOOOOOOOOOooOOOOOOOOOOOOOOOOOO",
"OOOOOOOOOOOOOOOOOOOOOOOOOOooOOOOooOOOOOOOOOOooOOOOOOOOOOOOOOOOOO",
"OOOOOOOOOOOOOOOOOOOOOOOOOOooooOOooOOOOOOOOOOooOOOOOOOOOOOOOOOOOO",
"OOOOOOOOOOOOOOOOOOOOOOOOOOooooOOooOOOOOOOOOOooOOOOOOOOOOOOOOOOOO",
"OOOOOOOOOOOOOOOOOOOOOOOOooooOOOOooOOOOOOooooooooOOOOOOOOOOOOOOOO",
"OOOOOOOOOOOOOOOOOOOOOOOOooooOOOOooOOOOOOooooooooOOOOOOOOOOOOOOOO",
"OOOOOOOOOOOOOOOOOOOOOOOOooOOOOOOOOOOOOooooooooooOOOOOOOOOOOOOOOO",
"OOOOOOOOOOOOOOOOOOOOOOOOooOOOOOOOOOOOOooooooooooOOOOOOOOOOOOOOOO",
"OOOOOOOOOOOOOOOOOOOOOOOOOOooOOOOOOOOOOooOOooOOooOOOOOOOOOOOOOOOO",
"OOOOOOOOOOOOOOOOOOOOOOOOOOooOOOOOOOOOOooOOooOOooOOOOOOOOOOOOOOOO",
"OOOOOOOOOOOOOOOOOOOOOOooOOOOOOOOOOOOOOOOOOOOOOOOOOOOOOOOOOOOOOOO",
"OOOOOOOOOOOOOOOOOOOOOOooOOOOOOOOOOOOOOOOOOOOOOOOOOOOOOOOOOOOOOOO"
};
