/* XPM */
static char *_149ca28bc6b4203b78951c6a2345301USjLpTAZfDVLV3EB[] = {
/* columns rows colors chars-per-pixel */
"64 64 2 1 ",
"  c #663931",
". c #FF0515",
/* pixels */
"                ....            ....            ....            ",
"                ....            ....            ....            ",
"                ....            ....            ....            ",
"                ....            ....            ....            ",
"                ....            ....                ....        ",
"                ....            ....                ....        ",
"                ....            ....                ....        ",
"                ....            ....                ....        ",
"                ....                ....            ....        ",
"                ....                ....            ....        ",
"                ....                ....            ....        ",
"                ....                ....            ....        ",
"                ....                ....            ....        ",
"                ....                ....            ....        ",
"                ....                ....            ....        ",
"                ....                ....            ....        ",
"....................                ....            ....        ",
"....................                ....            ....        ",
"....................                ....            ....        ",
"....................                ....            ....        ",
"                ....................................            ",
"                ....................................            ",
"                ....................................            ",
"                ....................................            ",
"....            ....                ....            ............",
"....            ....                ....            ............",
"....            ....                ....            ............",
"....            ....                ....            ............",
"    ....        ....            ....            ....            ",
"    ....        ....            ....            ....            ",
"    ....        ....            ....            ....            ",
"    ....        ....            ....            ....            ",
"        ....    ....        ....            ....                ",
"        ....    ....        ....            ....                ",
"        ....    ....        ....            ....                ",
"        ....    ....        ....            ....                ",
"            ....            ....                ....            ",
"            ....            ....                ....            ",
"            ....            ....                ....            ",
"            ....            ....                ....            ",
"    ........                    ....            ....            ",
"    ........                    ....            ....            ",
"    ........                    ....            ....            ",
"    ........                    ....            ....            ",
"....    ................................................        ",
"....    ................................................        ",
"....    ................................................        ",
"....    ................................................        ",
"        ....            ....            ....            ........",
"        ....            ....            ....            ........",
"        ....            ....            ....            ........",
"        ....            ....            ....            ........",
"........    ....        ....        ....            ........    ",
"........    ....        ....        ....            ........    ",
"........    ....        ....        ....            ........    ",
"........    ....        ....        ....            ........    ",
"            ....        ....        ....            ....        ",
"            ....        ....        ....            ....        ",
"            ....        ....        ....            ....        ",
"            ....        ....        ....            ....        ",
"            ........    ....    ....    ....    ....            ",
"            ........    ....    ....    ....    ....            ",
"            ........    ....    ....    ....    ....            ",
"            ........    ....    ....    ....    ....            "
};
