/* XPM */
static char *result[] = {
/* columns rows colors chars-per-pixel */
"64 64 7 1 ",
"  c black",
". c #524B24",
"X c #AC3232",
"o c #306082",
"O c #EEC39A",
"+ c white",
"@ c None",
/* pixels */
"@@@@@@@@@@@@@@@@@@@@@@@@@@@@@@@@@@@@@@@@@@@@@@@@@@@@@@@@@@@@@@@@",
"@@@@@@@@@@@@@@@@@@@@@@@@@@@@@@@@@@@@@@@@@@@@@@@@@@@@@@@@@@@@@@@@",
"@@@@@@@@@@@@@@@@@@@@@@@@@@@@@@@@@@@@@@@@@@@@@@@@@@@@@@@@@@@@@@@@",
"@@@@@@@@@@@@@@@@@@@@@@@@@@@@@@@@@@@@@@@@@@@@@@@@@@@@@@@@@@@@@@@@",
"@@@@@@@@@@@@@@@@@@@@@@@@@@@@@@@@@@@@@@@@@@@@@@@@@@@@@@@@@@@@@@@@",
"@@@@@@@@@@@@@@@@@@@@@@@@@@@@@@@@@@@@@@@@@@@@@@@@@@@@@@@@@@@@@@@@",
"@@@@@@@@@@@@@@@@@@@@  @@  @@        @@  @@  @@@@@@@@@@@@@@@@@@@@",
"@@@@@@@@@@@@@@@@@@@@  @@  @@        @@  @@  @@@@@@@@@@@@@@@@@@@@",
"@@@@@@@@@@@@@@@@@@@@                        @@@@@@@@@@@@@@@@@@@@",
"@@@@@@@@@@@@@@@@@@@@                        @@@@@@@@@@@@@@@@@@@@",
"@@@@@@@@@@@@@@@@@@@@  OOOOOOOOOOOOOOOOOOOO  @@@@@@@@@@@@@@@@@@@@",
"@@@@@@@@@@@@@@@@@@@@  OOOOOOOOOOOOOOOOOOOO  @@@@@@@@@@@@@@@@@@@@",
"@@@@@@@@@@@@@@@@@@@@  OOOO  OOOOOOOO  OOOO  @@@@@@@@@@@@@@@@@@@@",
"@@@@@@@@@@@@@@@@@@@@  OOOO  OOOOOOOO  OOOO  @@@@@@@@@@@@@@@@@@@@",
"@@@@@@@@@@@@@@@@@@    OO  ++OOOOOOOO++  OO    @@@@@@@@@@@@@@@@@@",
"@@@@@@@@@@@@@@@@@@    OO  ++OOOOOOOO++  OO    @@@@@@@@@@@@@@@@@@",
"@@@@@@@@@@@@@@@@@@  OOOOOOOOOOOOOOOOOOOOOOOO  @@@@@@@@@@@@@@@@@@",
"@@@@@@@@@@@@@@@@@@  OOOOOOOOOOOOOOOOOOOOOOOO  @@@@@@@@@@@@@@@@@@",
"@@@@@@@@@@@@@@@@@@    OOOOOOOOOOOOOOOOOOOO    @@@@@@@@@@@@@@@@@@",
"@@@@@@@@@@@@@@@@@@    OOOOOOOOOOOOOOOOOOOO    @@@@@@@@@@@@@@@@@@",
"@@@@@@@@@@@@@@@@@@@@  OOOOOOOO    OOOOOOOO  @@@@@@@@@@@@@@@@@@@@",
"@@@@@@@@@@@@@@@@@@@@  OOOOOOOO    OOOOOOOO  @@@@@@@@@@@@@@@@@@@@",
"@@@@@@@@@@@@@@@@@@@@  OOOOOO  OOOO  OOOOOO  @@@@@@@@@@@@@@@@@@@@",
"@@@@@@@@@@@@@@@@@@@@  OOOOOO  OOOO  OOOOOO  @@@@@@@@@@@@@@@@@@@@",
"@@@@@@@@@@@@@@@@@@@@    OO  OOOOOOOO  OO    @@@@@@@@@@@@@@@@@@@@",
"@@@@@@@@@@@@@@@@@@@@    OO  OOOOOOOO  OO    @@@@@@@@@@@@@@@@@@@@",
"@@@@@@@@@@@@@@@@@@@@@@  OOOOOOOOOOOOOOOO  @@@@@@@@@@@@@@@@@@@@@@",
"@@@@@@@@@@@@@@@@@@@@@@  OOOOOOOOOOOOOOOO  @@@@@@@@@@@@@@@@@@@@@@",
"@@@@@@@@@@@@@@@@@@      XXXXXXXXXXXXXXXX      @@@@@@@@@@@@@@@@@@",
"@@@@@@@@@@@@@@@@@@      XXXXXXXXXXXXXXXX      @@@@@@@@@@@@@@@@@@",
"@@@@@@@@@@@@@@@@  XXXXXXXXXXXXXXXXXXXXXXXXXXXX  @@@@@@@@@@@@@@@@",
"@@@@@@@@@@@@@@@@  XXXXXXXXXXXXXXXXXXXXXXXXXXXX  @@@@@@@@@@@@@@@@",
"@@@@@@@@@@@@@@  OO      XXXXXXXXXXXXXXXX      OO  @@@@@@@@@@@@@@",
"@@@@@@@@@@@@@@  OO      XXXXXXXXXXXXXXXX      OO  @@@@@@@@@@@@@@",
"@@@@@@@@@@@@  OO  @@@@  XXXXXXXXXXXXXXXX  @@@@  OO  @@@@@@@@@@@@",
"@@@@@@@@@@@@  OO  @@@@  XXXXXXXXXXXXXXXX  @@@@  OO  @@@@@@@@@@@@",
"@@@@@@@@@@  OO  @@@@@@  XXXXXXXXXXXXXXXX  @@@@@@  OO  @@@@@@@@@@",
"@@@@@@@@@@  OO  @@@@@@  XXXXXXXXXXXXXXXX  @@@@@@  OO  @@@@@@@@@@",
"@@@@@@@@@@    @@@@@@@@  XXXXXXXXXXXXXXXX  @@@@@@@@    @@@@@@@@@@",
"@@@@@@@@@@    @@@@@@@@  XXXXXXXXXXXXXXXX  @@@@@@@@    @@@@@@@@@@",
"@@@@@@@@@@    @@@@@@@@  XXXXXXXXXXXXXXXX  @@@@@@@@    @@@@@@@@@@",
"@@@@@@@@@@    @@@@@@@@  XXXXXXXXXXXXXXXX  @@@@@@@@    @@@@@@@@@@",
"@@@@@@@@@@    @@@@@@@@  XXXXXXXXXXXXXXXX  @@@@@@@@    @@@@@@@@@@",
"@@@@@@@@@@    @@@@@@@@  XXXXXXXXXXXXXXXX  @@@@@@@@    @@@@@@@@@@",
"@@@@@@@@  @@  @@@@@@@@  XXXXXXXXXXXXXXXX  @@@@@@@@  @@  @@@@@@@@",
"@@@@@@@@  @@  @@@@@@@@  XXXXXXXXXXXXXXXX  @@@@@@@@  @@  @@@@@@@@",
"@@@@@@@@@@  @@  @@@@@@  XXXXXXXXXXXXXXXX  @@@@@@  @@  @@@@@@@@@@",
"@@@@@@@@@@  @@  @@@@@@  XXXXXXXXXXXXXXXX  @@@@@@  @@  @@@@@@@@@@",
"@@@@@@@@@@@@@@@@@@@@@@                    @@@@@@@@@@@@@@@@@@@@@@",
"@@@@@@@@@@@@@@@@@@@@@@                    @@@@@@@@@@@@@@@@@@@@@@",
"@@@@@@@@@@@@@@@@@@@@@@@@oooooo@@@@oooooo@@@@@@@@@@@@@@@@@@@@@@@@",
"@@@@@@@@@@@@@@@@@@@@@@@@oooooo@@@@oooooo@@@@@@@@@@@@@@@@@@@@@@@@",
"@@@@@@@@@@@@@@@@@@@@@@@@oooooo@@@@oooooo@@@@@@@@@@@@@@@@@@@@@@@@",
"@@@@@@@@@@@@@@@@@@@@@@@@oooooo@@@@oooooo@@@@@@@@@@@@@@@@@@@@@@@@",
"@@@@@@@@@@@@@@@@@@@@@@@@oooooo@@@@oooooo@@@@@@@@@@@@@@@@@@@@@@@@",
"@@@@@@@@@@@@@@@@@@@@@@@@oooooo@@@@oooooo@@@@@@@@@@@@@@@@@@@@@@@@",
"@@@@@@@@@@@@@@@@@@@@@@@@oooooo@@@@oooooo@@@@@@@@@@@@@@@@@@@@@@@@",
"@@@@@@@@@@@@@@@@@@@@@@@@oooooo@@@@oooooo@@@@@@@@@@@@@@@@@@@@@@@@",
"@@@@@@@@@@@@@@@@@@@@@@@@......@@@@......@@@@@@@@@@@@@@@@@@@@@@@@",
"@@@@@@@@@@@@@@@@@@@@@@@@......@@@@......@@@@@@@@@@@@@@@@@@@@@@@@",
"@@@@@@@@@@@@@@@@@@@@..........@@@@..........@@@@@@@@@@@@@@@@@@@@",
"@@@@@@@@@@@@@@@@@@@@..........@@@@..........@@@@@@@@@@@@@@@@@@@@",
"@@@@@@@@@@@@@@@@@@@@..........@@@@..........@@@@@@@@@@@@@@@@@@@@",
"@@@@@@@@@@@@@@@@@@@@..........@@@@..........@@@@@@@@@@@@@@@@@@@@"
};
