/* XPM */
static char *result[] = {
/* columns rows colors chars-per-pixel */
"64 64 3 1 ",
"  c black",
". c #222034",
"X c #9BADB7",
/* pixels */
"XXXXXXXXXXXXXXXXXXXXXXXXXXXXXXXXXXXXXXXXXXXXXXXXXXXXXXXXXXXXXXXX",
"XXXXXXXXXXXXXXXXXXXXXXXXXXXXXXXXXXXXXXXXXXXXXXXXXXXXXXXXXXXXXXXX",
"XXXXXXXXXXXXXXXX  XXXXXXXX    XXXXXXXXXX  XXXXXXXX  XXXXXXXXXXXX",
"XXXXXXXXXXXXXXXX  XXXXXXXX    XXXXXXXXXX  XXXXXXXX  XXXXXXXXXXXX",
"XXXXXXXXXXXXXXXX  XXXXXXXX    XXXXXXXXXX  XXXXXXXX  XXXXXXXXXXXX",
"XXXXXXXXXXXXXXXX  XXXXXXXX    XXXXXXXXXX  XXXXXXXX  XXXXXXXXXXXX",
"XXXXXXXXXXXXXXXX  XXXXXX        XXXXXX      XXXXXX  XXXXXXXXXXXX",
"XXXXXXXXXXXXXXXX  XXXXXX        XXXXXX      XXXXXX  XXXXXXXXXXXX",
"XXXXXXXXXXXXXX      XX            XX          XX    XXXXXXXXXXXX",
"XXXXXXXXXXXXXX      XX            XX          XX    XXXXXXXXXXXX",
"XXXXXXXXXXXXXX        ..                            XXXXXXXXXXXX",
"XXXXXXXXXXXXXX        ..                            XXXXXXXXXXXX",
"  XXXXXXXXXXXX..      ..      ..  ..............  XXXXXXXXXXXX  ",
"  XXXXXXXXXXXX..      ..      ..  ..............  XXXXXXXXXXXX  ",
"  XXXXXXXXXX  ..      ..      ..  ..          ..    XXXXXXXXXX  ",
"  XXXXXXXXXX  ..      ..      ..  ..          ..    XXXXXXXXXX  ",
"  XXXXXXXXXX  ..................  ..          ..    XXXXXXXXXX  ",
"  XXXXXXXXXX  ..................  ..          ..    XXXXXXXXXX  ",
"    XXXXXXXX  ..      ..      ..  ..          ..    XXXXXXXX    ",
"    XXXXXXXX  ..      ..      ..  ..          ..    XXXXXXXX    ",
"    XXXXXXXXXX        ..          ..          ..  XXXXXXXXXX    ",
"    XXXXXXXXXX        ..          ..          ..  XXXXXXXXXX    ",
"    XXXXXXXXXX        ..          ..          ..  XXXXXXXXXX    ",
"    XXXXXXXXXX        ..          ..          ..  XXXXXXXXXX    ",
"    XXXXXXXXXX..      ..      ..  ..          ..  XXXXXXXXXX    ",
"    XXXXXXXXXX..      ..      ..  ..          ..  XXXXXXXXXX    ",
"    XXXXXXXXXX..      ..      ..  ..............  XXXXXXXXXX    ",
"    XXXXXXXXXX..      ..      ..  ..............  XXXXXXXXXX    ",
"      XXXXXXXX..................  ..          ..  XXXXXXXX      ",
"      XXXXXXXX..................  ..          ..  XXXXXXXX      ",
"      XXXXXXXXXX              ..                XXXXXXXXXX      ",
"      XXXXXXXXXX              ..                XXXXXXXXXX      ",
"      XXXXXXXXXX                                XXXXXXXXXX      ",
"      XXXXXXXXXX                                XXXXXXXXXX      ",
"        XXXXXXXX                                XXXXXXXX        ",
"        XXXXXXXX                                XXXXXXXX        ",
"        XXXXXXXXXX                            XXXXXXXXXX        ",
"        XXXXXXXXXX                            XXXXXXXXXX        ",
"          XXXXXXXX                            XXXXXXXX          ",
"          XXXXXXXX                            XXXXXXXX          ",
"            XXXXXX                            XXXXXX            ",
"            XXXXXX                            XXXXXX            ",
"      XX      XXXX                            XXXX      XX      ",
"      XX      XXXX                            XXXX      XX      ",
"    XXXXXX                                            XXXXXX    ",
"    XXXXXX                                            XXXXXX    ",
"    XXXXXX                                            XXXXXX    ",
"    XXXXXX                                            XXXXXX    ",
"    XXXXXX                                            XXXXXX    ",
"    XXXXXX                                            XXXXXX    ",
"  XXXXXXXX                                            XXXXXXXX  ",
"  XXXXXXXX                                            XXXXXXXX  ",
"  XXXXXXXX                                            XXXXXXXX  ",
"  XXXXXXXX                                            XXXXXXXX  ",
"  XXXXXXXX        XX            XX          XX        XXXXXXXX  ",
"  XXXXXXXX        XX            XX          XX        XXXXXXXX  ",
"  XXXXXXXX      XXXXXX        XXXXXX      XXXXXX      XXXXXXXX  ",
"  XXXXXXXX      XXXXXX        XXXXXX      XXXXXX      XXXXXXXX  ",
"  XXXXXXXXXX    XXXXXXXX    XXXXXXXXXX  XXXXXXXX    XXXXXXXXXX  ",
"  XXXXXXXXXX    XXXXXXXX    XXXXXXXXXX  XXXXXXXX    XXXXXXXXXX  ",
"XXXXXXXXXXXX    XXXXXXXX    XXXXXXXXXX  XXXXXXXX    XXXXXXXXXXXX",
"XXXXXXXXXXXX    XXXXXXXX    XXXXXXXXXX  XXXXXXXX    XXXXXXXXXXXX",
"XXXXXXXXXXXXXXXXXXXXXXXXXXXXXXXXXXXXXXXXXXXXXXXXXXXXXXXXXXXXXXXX",
"XXXXXXXXXXXXXXXXXXXXXXXXXXXXXXXXXXXXXXXXXXXXXXXXXXXXXXXXXXXXXXXX"
};
