/* XPM */
static char *_f6217619c0f4c59ae2bb4c445a12a24aueKlQ1Eeyk3yy82[] = {
/* columns rows colors chars-per-pixel */
"64 64 5 1 ",
"  c None",
". c black",
"X c red",
"o c #C5C5C5",
"O c white",
/* pixels */
"                                                                ",
"                                                                ",
"                        OOOOOOOOOOOOOOOO                        ",
"                        OOOOOOOOOOOOOOOO                        ",
"                      OOOOooooooooooooOOOO                      ",
"                      OOOOooooooooooooOOOO                      ",
"                    OOoo..oooooooooooo..ooOO                    ",
"                    OOoo..oooooooooooo..ooOO                    ",
"                  OOOOoooo..oooooooo..ooooOOOO                  ",
"                  OOOOoooo..oooooooo..ooooOOOO                  ",
"                  OOoooo..XX..oooo..XX..ooooOO                  ",
"                  OOoooo..XX..oooo..XX..ooooOO                  ",
"                  OOoooooo..oooooooo..ooooooOO                  ",
"                  OOoooooo..oooooooo..ooooooOO                  ",
"                  OOooooooooooooooooooooooooOO                  ",
"                  OOooooooooooooooooooooooooOO                  ",
"                  OOOOooooooooooooooooooooOOOO                  ",
"                  OOOOooooooooooooooooooooOOOO                  ",
"            OO      OOOOooooooooooooooooOOOO      OO            ",
"            OO      OOOOooooooooooooooooOOOO      OO            ",
"            OO        OOOOOOOOOOOOOOOOOOOO        OO            ",
"            OO        OOOOOOOOOOOOOOOOOOOO        OO            ",
"            OO            OO..OO..OO..            OO            ",
"            OO            OO..OO..OO..            OO            ",
"      OO    OO            ............            OO    OO      ",
"      OO    OO            ............            OO    OO      ",
"      OO    OOOO          ............          OOOO    OO      ",
"      OO    OOOO          ............          OOOO    OO      ",
"  OO  OO      OO          ..OO..OO..OO          OO      OO  OO  ",
"  OO  OO      OO          ..OO..OO..OO          OO      OO  OO  ",
"  OO  OOOO    OOOO        OOOOOOOOOOOO        OOOO    OOOO  OO  ",
"  OO  OOOO    OOOO        OOOOOOOOOOOO        OOOO    OOOO  OO  ",
"  OO    OO      OOOO          OOOO          OOOO      OO    OO  ",
"  OO    OO      OOOO          OOOO          OOOO      OO    OO  ",
"  OO    OOOO      OOOOOO      OOOOOO    OOOOOO      OOOO    OO  ",
"  OO    OOOO      OOOOOO      OOOOOO    OOOOOO      OOOO    OO  ",
"  OO    OOOO      OOOOOO      OOOOOOOO  OOOOOO      OOOO    OO  ",
"  OO    OOOO      OOOOOO      OOOOOOOO  OOOOOO      OOOO    OO  ",
"  OOOO    OOOO        OOOOOOOOOOOOOOOOOOOO        OOOO    OOOO  ",
"  OOOO    OOOO        OOOOOOOOOOOOOOOOOOOO        OOOO    OOOO  ",
"      OOOO      OOOOOOOOOOOOOOOOOOOOOOOOOOOOOOOO      OOOO      ",
"      OOOO      OOOOOOOOOOOOOOOOOOOOOOOOOOOOOOOO      OOOO      ",
"        OOOO                  OOOO      OOOO        OOOO        ",
"        OOOO                  OOOO      OOOO        OOOO        ",
"          OOOOOOOOOOOOOOOOOOOOOOOOOOOOOOOOOOOOOOOOOOOO          ",
"          OOOOOOOOOOOOOOOOOOOOOOOOOOOOOOOOOOOOOOOOOOOO          ",
"                              OOOO        OO                    ",
"                              OOOO        OO                    ",
"                            OOOOOO        OOOO                  ",
"                            OOOOOO        OOOO                  ",
"                          OOOO  OO          OO                  ",
"                          OOOO  OO          OO                  ",
"                          OO    OO          OO                  ",
"                          OO    OO          OO                  ",
"                          OO    OO          OO                  ",
"                          OO    OO          OO                  ",
"                        OOOO    OO          OO                  ",
"                        OOOO    OO          OO                  ",
"                      OOOO              OOOOOOOO                ",
"                      OOOO              OOOOOOOO                ",
"                      OO              OOOOOOOOOO                ",
"                      OO              OOOOOOOOOO                ",
"                    OO  OO            OO  OO  OO                ",
"                    OO  OO            OO  OO  OO                "
};
