/* XPM */
static char *_4b6b91c159f48feb9818085c99ce013dRHA9drj73lOXuXv[] = {
/* columns rows colors chars-per-pixel */
"40 40 139 2 ",
"   c #5D3E34",
".  c #762F2A",
"X  c #7C2E2A",
"o  c #6D362E",
"O  c #69392F",
"+  c #73332D",
"@  c #7A312B",
"#  c #6A3730",
"$  c #643B32",
"%  c #693831",
"&  c #564236",
"*  c #584035",
"=  c #AB1C1E",
"-  c #B9171D",
";  c #BE191F",
":  c #A51F21",
">  c #A91D20",
",  c #B41E23",
"<  c #BC1C21",
"1  c #8D2625",
"2  c #852A27",
"3  c #8D2927",
"4  c #822C29",
"5  c #8C2A29",
"6  c #942525",
"7  c #9C2224",
"8  c #902827",
"9  c #9E2729",
"0  c #942C2B",
"q  c #9B2929",
"w  c #8B312E",
"e  c #A32224",
"r  c #AB2326",
"t  c #A22827",
"y  c #A32629",
"u  c #A82628",
"i  c #A2292A",
"p  c #AA292A",
"a  c #B12124",
"s  c #BD2125",
"d  c #B7252A",
"f  c #BA2429",
"g  c #D90F1A",
"h  c #C6161D",
"j  c #CD141C",
"k  c #C4181E",
"l  c #D6141D",
"z  c #D7151E",
"x  c #D5161E",
"c  c #D6171F",
"v  c #D4151E",
"b  c #DE101C",
"n  c #DE121D",
"m  c #DC121E",
"M  c #DE121E",
"N  c #DF131E",
"B  c #D9141D",
"V  c #D8151D",
"C  c #D8141E",
"Z  c #D9141E",
"A  c #DA151E",
"S  c #DA151F",
"D  c #D8161F",
"F  c #DC141E",
"G  c #DD141E",
"H  c #DA141E",
"J  c #D2181F",
"K  c #EF0C17",
"L  c #E30F1B",
"P  c #E50D18",
"I  c #E70F1A",
"U  c #E70F1C",
"Y  c #EF0B18",
"T  c #E80F1A",
"R  c #EA0E1A",
"E  c #EF0D19",
"W  c #EF0D1B",
"Q  c #EC0D1A",
"!  c #FF0513",
"~  c #F30A17",
"^  c #F20A18",
"/  c #F70918",
"(  c #F50B18",
")  c #F50A19",
"_  c #F20C19",
"`  c #F30B19",
"'  c #F90818",
"]  c #F80A19",
"[  c #E31017",
"{  c #E0111B",
"}  c #E7111B",
"|  c #E3111C",
" . c #E0121C",
".. c #E1121C",
"X. c #E1131D",
"o. c #E1111E",
"O. c #E3111E",
"+. c #E0121E",
"@. c #E4101C",
"#. c #E4101E",
"$. c #E3111C",
"%. c #E9101C",
"&. c #C01920",
"*. c #C31820",
"=. c #C21920",
"-. c #C01F24",
";. c #C01F25",
":. c #C31E24",
">. c #C21F24",
",. c #C41D24",
"<. c #C71C24",
"1. c #C61D24",
"2. c #C41F25",
"3. c #C41D24",
"4. c #CB1A22",
"5. c #CA1B22",
"6. c #CE1920",
"7. c #CD1922",
"8. c #C91C22",
"9. c #C81D23",
"0. c #CA1A24",
"q. c #C81F26",
"w. c #CA1B23",
"e. c #D21720",
"r. c #D51721",
"t. c #D31720",
"y. c #DA1620",
"u. c #D91621",
"i. c #D01820",
"p. c #D11820",
"a. c #D31821",
"s. c #D21921",
"d. c #D71820",
"f. c #D11820",
"g. c #C12025",
"h. c #C02125",
"j. c #C12026",
"k. c #C02126",
"l. c #C12126",
/* pixels */
"$ $ $ $ $ $ % % % 5 Z o.r 4 o $ $ % o 3 l m r 4 o $ $ % o 8 Z o.r 4 O   % O $ $ ",
"$ $ $ $ $ $ % % % 5 Z o.u 4 o $ $ % O 3 l o.r 4 % $ % % % 4 9.p.a 1 @ O O % $ $ ",
"% % % O $ $ % % O 3 Z o.u X O $ $ $ O 3 Z o.r X $   $ % % @ q r , a 9 4 o $ % o ",
"% % O O $ $ % % O 3 Z o.r X O $ $ % O 3 6.Z r 2 o $ $ % % # @ 1 < 2.f 6 O   % + ",
"$ $ $ $ $ $ $ % % 5 Z o.r 4 o $ % O o 4 a 2., 7 5 @ O % % % % 4 < p.2.7 O   % + ",
"$ $ $ $ $ $ $ % % 3 Z o.u 4 o $ $ O o @ 5 7 < s p 5 o $ % % $ X < l 5.e O * % + ",
"% % % % $ $ % % O 3 Z o.u X %   $ $ $ $ $ X < J g.6 %   $ $ $ X < l 6.: o   o + ",
"% % % % % % % O o 8 Z o.u X % $ $ $ $ $ * + < F 5.7 o   $ % $ X < r.5.: o   O + ",
"% % % % O O O o + 8 Z o.r 2 + O O o + o % 4 &.y.9.e @ $ o + % 4 < p.2.7 % & $ o ",
"5 5 5 3 3 3 3 8 8 > L o.r 4 + $ % O o o % 4 < Z 2.7 + $ O o % X < p.9.7 % * % o ",
"m m m Z l l Z Z l { / #.u @ $       $   & + < Z 2.6 $ &   $   @ < Z e.> +   + @ ",
"#.o.o.o.o.o.o.o.o.I ' T , 1 X @ @ @ X @ + 2 h o.p.> 4 o @ X X 1 < 5.g.7 o $ o + ",
"i y u u r r r r r &.T ^ m j h &.&.k h k &.j I Y T g h &.k k k < , y w + $       ",
"2 2 2 4 4 4 4 4 2 e m / T o.F F F F F F F o.Y / _ T m Z F F F 6.> 6 4 + + o o o ",
"> 7 2 @ o % # o + 8 Z W Z 5.>.s s s >.s s 9.#.W } Z >.s g.>.s s a > : e : e e e ",
"9.f q @ % $ $ $ % 5 l T k > 7 6 6 6 6 6 6 = v o.d.- 7 8 6 7 7 e , g.2.5.5.5.0.0.",
"Z 9.u 2 @ % % $ % 5 l o., 1 X + + @ @ X 4 6 k 6.g.7 @ o @ X 2 6 , 5.l F y.r.Z Z ",
"< < , u 0 @ # $ o 8 Z o.r 4 o $ $ % # @ 0 u , a 9 4 o $ % @ q u , < < < < < < < ",
"@ 2 , 2.d 6 + $ + 6 Z m r 4 o $ % # @ 8 2.5.r 1 @ O % o + 3 2.6.r 1 X @ X X @ @ ",
"  + y s < > 5 @ + 8 Z m r 4 # $ # @ 5 : 5.2.q @ $ $ o X 3 e 5.2.q @ $   $ $     ",
"% o @ 3 > >.>.u @ 4 Z o.u X % $ + 0 g.,.e 2 X + $ $ . q >.,.7 4 @ o % $ % % % $ ",
"O % $ @ 6 f 0.< 2 8 6.p.9 . % % . y Z J 3 o + o $ % X 9 2.9.7 4 @ # % % O O O O ",
"% $ $ $ @ 5 u < < < , e 4 + % o 4 u #.Z 5 $ % % $ % @ 5 y , < r 5 @ % $ $ $ $ $ ",
"$ $ # + @ 4 6 a 5.2.7 4 @ o % o X t l J 8 + o % $ $ # @ 4 7 6.5.y X $   $ $ $ $ ",
"$ % 4 8 7 e e r f p @ $ $ $ $ $ o w d s e 8 @ o $   $ $ % 3 p.Z u X $   % o $ $ ",
"% @ q d 2.9.g.a : 8 + % $ % O o + X 6 > < f q X o $ % % % 3 Z o.a 2 # $ % O $ $ ",
"4 1 r 5.#.W o.k 7 2 2 2 4 4 4 4 4 2 1 > Z m , 6 4 X 4 2 2 : m %.< 6 @ O % $ $ $ ",
"r r , ; g T _ m a y r a r r r r r r r < T ^ J < r u r a , k U W J , 0 @ o $ % O ",
"o.p.u 6 > 5.W ~ o.Z o.o.m +.{ #.#.#.o.} _ _ U #.{ o.#.#.o.#._ ( W m s 6 @ % o + ",
"m 2.0 4 6 s %.~ Z e.m m e.l U ^ ' Y m l l r.p.l U ^ / W m r.l Z Z p.,.> 6 5 8 6 ",
"8 4 + @ 7 2.o.v 6 4 6 6 4 8 - Z #.j 7 5 6 8 4 8 - Z o.j 7 5 8 8 3 8 e < p.Z l J ",
"2 4 X 2 : >.e.; 2 @ @ + $ + : 5.Z ; X $ + @ + 4 > 2.0.a X % o + @ 2 > p.W ^ o.Z ",
"< < < < , , , , r y 4 + $ o e 9.Z < X $ O @ 8 u , , y 5 @ % % @ 3 a v U W m < u ",
"p.r.Z p.d 7 7 r 5.l.5 o   o e 9.Z < X $ $ @ r >.>.: 4 o o % $ @ u 6.U W F ; 6 4 ",
"5.5.p.2.i 5 1 r m l 8 O   o e 0.l < X $   X < Z 0.7 o   % O $ @ , m W o.s q . O ",
"e : > 7 4 @ 4 r o.m 6 + $ o e 0.l < X $ $ 4 &.Z 0.7 o   O o % 4 < F o.h 6 @ O $ ",
"O o o o $ o 2 r F F : 4 % + e 9.Z < X % @ 1 < 0.>.: 4 + o + @ 1 , 9.s 6 + $ o + ",
"*         % 2 a F #.h u @ @ e 9.Z < X + q r r a , a y 5 @ @ q r , r q @ $   O + ",
"O O o O $ O 2 a o./ K J q 2 : 2.Z < X 4 9.J u 6 > < 9., X 4 2.e.a 1 . o O % $ $ ",
"o + @ + $ O 4 r #.! ! [ y 2 : 2.Z < X 5 n } i 2 : 2.Z k 4 3 m o.a 4 % $ o o $   "
};
